<?xml version="1.0" standalone="no"?>
<!DOCTYPE svg PUBLIC "-//W3C//DTD SVG 20010904//EN"
 "http://www.w3.org/TR/2001/REC-SVG-20010904/DTD/svg10.dtd">
<svg version="1.0" xmlns="http://www.w3.org/2000/svg"
 width="700.000000pt" height="700.000000pt" viewBox="0 0 700.000000 700.000000"
 preserveAspectRatio="xMidYMid meet">
<metadata>
Created by potrace 1.14, written by Peter Selinger 2001-2017
</metadata>
<g transform="translate(0.000000,700.000000) scale(0.100000,-0.100000)"
fill="#000000" stroke="none">
<path d="M3535 6889 c-3 -9 -24 -45 -45 -78 -22 -34 -40 -64 -40 -68 0 -3 -10
-20 -23 -37 -12 -17 -28 -42 -35 -56 -6 -14 -37 -65 -67 -114 -30 -49 -55 -93
-55 -97 0 -4 -8 -13 -17 -18 -10 -6 -15 -11 -11 -11 4 0 -15 -36 -42 -81 -28
-44 -50 -85 -50 -90 0 -5 -4 -9 -8 -9 -8 0 -36 -51 -32 -59 1 -2 -3 -7 -8 -10
-15 -10 -112 -178 -112 -195 0 -8 5 -18 10 -21 6 -4 8 -10 5 -15 -3 -5 -1 -11
5 -15 5 -3 17 -23 27 -43 9 -20 22 -40 27 -44 6 -4 8 -8 4 -8 -4 0 5 -24 19
-52 15 -29 25 -55 24 -57 -2 -2 1 -7 6 -10 15 -11 34 -52 28 -61 -4 -6 1 -10
10 -10 9 0 14 -4 10 -9 -3 -5 2 -17 11 -25 8 -9 12 -16 8 -16 -3 0 -1 -7 6
-15 7 -8 9 -15 4 -15 -5 0 -1 -5 9 -11 9 -6 15 -14 12 -20 -4 -5 -1 -9 5 -9 6
0 9 -4 6 -9 -3 -5 4 -20 15 -35 11 -14 17 -26 12 -26 -4 0 -3 -4 2 -8 15 -10
35 -49 35 -67 0 -8 4 -15 8 -15 8 0 44 -73 48 -97 1 -7 9 -20 18 -29 9 -8 14
-20 11 -25 -4 -5 -1 -9 4 -9 6 0 11 -7 11 -15 0 -8 5 -15 12 -15 6 0 8 -3 5
-7 -4 -3 -2 -12 4 -20 6 -7 8 -13 3 -13 -5 0 -4 -4 2 -8 13 -8 94 -163 94
-179 0 -6 4 -13 9 -15 5 -1 11 -10 13 -18 2 -8 7 -18 11 -21 4 -3 9 -15 10
-27 0 -11 4 -19 7 -17 3 2 12 -11 19 -28 8 -18 21 -40 29 -49 8 -10 12 -18 8
-18 -7 0 32 -81 43 -90 5 -4 60 -112 67 -130 12 -37 30 -70 37 -70 4 0 5 -4 2
-10 -3 -5 -2 -10 2 -10 10 0 49 -80 45 -92 -1 -5 2 -8 8 -8 5 0 10 -9 10 -20
0 -11 4 -20 8 -20 5 0 19 -24 33 -52 13 -29 26 -55 30 -58 3 -3 14 -26 25 -52
10 -27 23 -48 27 -48 5 0 5 -4 2 -10 -3 -5 -1 -10 4 -10 6 0 11 -6 11 -14 0
-8 16 -42 34 -75 19 -34 32 -61 28 -61 -4 0 -2 -4 3 -8 12 -8 39 -64 37 -74
-1 -5 2 -8 6 -8 12 0 33 -50 26 -61 -3 -5 -2 -9 3 -8 20 3 27 -2 13 -11 -13
-8 -12 -10 3 -10 9 0 16 -4 15 -8 -4 -10 74 -166 85 -170 4 -2 7 -12 7 -23 0
-10 5 -19 10 -19 6 0 10 -9 10 -20 0 -11 5 -20 10 -20 6 0 10 -9 10 -20 0 -11
3 -20 8 -20 8 0 32 -48 32 -66 0 -7 3 -14 8 -16 13 -5 82 -145 75 -152 -3 -3
-2 -6 4 -6 10 0 38 -49 35 -62 -1 -5 2 -8 6 -8 9 0 37 -70 34 -83 -1 -5 1 -6
6 -3 8 5 38 -62 34 -77 -1 -5 2 -6 7 -3 9 6 37 -61 33 -77 -1 -5 2 -6 8 -2 5
3 10 -1 10 -9 0 -9 4 -16 8 -16 5 0 15 -18 22 -40 7 -22 17 -40 22 -40 5 0 7
-4 3 -9 -3 -5 -1 -12 4 -16 6 -3 7 -13 4 -22 -4 -10 -2 -14 4 -10 10 7 23 -12
29 -41 1 -8 10 -22 20 -33 9 -10 14 -19 10 -19 -4 0 1 -12 12 -28 24 -34 57
-105 54 -114 -1 -5 3 -8 9 -8 5 0 8 -4 5 -9 -4 -5 -2 -11 3 -13 5 -1 11 -10
13 -18 2 -8 6 -17 10 -20 3 -3 8 -12 10 -20 2 -8 11 -23 21 -34 9 -11 17 -25
17 -32 0 -7 13 -35 29 -63 16 -27 27 -52 23 -55 -3 -4 3 -13 14 -21 10 -8 15
-15 9 -15 -5 0 -4 -4 3 -9 7 -4 14 -18 15 -29 1 -12 4 -22 8 -22 3 0 37 -62
75 -137 38 -76 71 -140 74 -143 3 -3 6 -12 8 -20 2 -8 11 -23 19 -32 9 -10 12
-18 8 -18 -4 0 0 -9 10 -20 10 -11 14 -20 9 -20 -5 0 -4 -4 1 -8 11 -7 38 -64
35 -71 -1 -2 3 -7 10 -11 6 -4 13 -13 14 -21 3 -15 16 -42 46 -99 10 -19 15
-39 12 -45 -3 -5 -1 -7 3 -2 5 4 23 -21 40 -55 17 -35 37 -73 43 -85 7 -13 16
-31 21 -40 37 -78 77 -149 85 -155 7 -5 6 -8 -3 -8 -13 0 -13 -2 0 -13 8 -6
24 -31 35 -54 10 -24 22 -43 27 -43 4 0 7 -9 7 -20 0 -11 5 -20 11 -20 5 0 7
-5 4 -10 -3 -6 -1 -10 4 -10 6 0 10 -3 10 -7 -3 -18 2 -32 14 -45 6 -7 22 -34
34 -60 l23 -48 -43 0 c-23 -1 -748 -1 -1610 -2 -863 0 -1566 -3 -1563 -6 3 -3
-4 -13 -16 -23 -11 -11 -18 -19 -13 -19 4 0 -4 -15 -19 -34 -14 -19 -26 -37
-26 -41 0 -3 -11 -22 -23 -43 -51 -80 -61 -97 -58 -101 1 -2 -1 -7 -6 -10 -6
-3 -29 -40 -54 -81 -24 -41 -48 -78 -54 -82 -5 -4 -6 -8 -1 -8 5 0 2 -8 -6
-17 -27 -33 -77 -121 -71 -127 4 -3 1 -6 -4 -6 -6 0 -28 -30 -49 -67 -21 -38
-44 -74 -51 -81 -7 -7 -13 -20 -13 -28 0 -12 343 -14 2520 -14 1568 0 2520 4
2520 9 0 6 -5 13 -12 17 -7 5 -8 3 -3 -6 5 -9 4 -11 -4 -6 -6 4 -9 11 -6 16 3
5 1 12 -5 15 -8 5 -7 11 1 21 6 8 9 17 5 21 -3 3 -6 1 -6 -5 0 -7 -4 -12 -10
-12 -5 0 -7 7 -4 15 4 8 1 15 -5 15 -6 0 -11 9 -11 21 0 11 -5 17 -10 14 -6
-3 -10 3 -10 14 0 12 -5 21 -11 21 -5 0 -7 5 -4 10 9 15 27 12 19 -2 -4 -7 -3
-9 1 -5 5 4 10 14 11 22 2 11 -2 12 -16 5 -23 -12 -33 -13 -26 -1 3 5 0 14 -8
20 -8 7 -17 24 -21 39 -4 15 -14 35 -22 45 -9 9 -12 17 -7 17 5 0 3 4 -5 9
-13 8 -13 12 -1 26 12 15 12 16 -5 13 -11 -1 -20 2 -21 7 -3 21 -29 75 -36 75
-15 0 -8 29 10 40 14 9 14 10 -6 5 -18 -5 -25 -2 -29 14 -3 12 -8 21 -12 21
-4 0 -7 16 -8 36 -1 29 2 34 16 29 12 -5 13 -3 4 6 -14 14 -36 2 -29 -17 3 -8
1 -14 -4 -14 -6 0 -10 9 -10 19 0 11 -6 22 -12 25 -7 3 -4 4 7 3 13 -1 20 5
22 18 1 15 1 16 -3 3 -4 -15 -9 -16 -26 -7 -11 6 -17 16 -15 23 3 7 -4 18 -16
25 -21 13 -21 13 4 28 23 13 23 14 2 8 -17 -5 -23 -2 -23 10 0 10 5 13 12 9 7
-4 8 -3 4 5 -6 9 -11 9 -22 0 -9 -7 -14 -8 -13 -3 4 13 -11 54 -20 54 -4 0 -8
7 -8 15 0 22 12 18 24 -7 8 -19 10 -20 16 -4 4 9 3 15 -2 12 -5 -3 -11 1 -15
9 -3 8 -12 15 -21 15 -8 0 -15 5 -15 11 0 6 -7 17 -16 26 -8 9 -13 21 -10 28
3 8 -2 16 -11 19 -12 5 -13 9 -4 20 9 11 9 16 0 22 -8 5 -10 3 -5 -7 4 -8 -1
-3 -12 11 -11 13 -18 29 -15 34 3 5 0 14 -8 20 -14 10 -53 82 -54 99 0 4 -5
11 -11 15 -6 4 -10 15 -8 24 1 10 -5 23 -14 29 -15 9 -14 10 3 5 17 -5 16 -3
-5 14 -14 11 -22 20 -18 20 5 0 -2 12 -15 26 -20 23 -25 36 -30 86 -1 9 -5 14
-9 12 -4 -3 -14 9 -23 26 -8 16 -12 30 -8 30 5 0 -1 8 -12 17 l-20 16 20 -7
c17 -5 17 -4 -3 12 -13 10 -24 26 -26 36 -1 10 -9 22 -17 28 -11 8 -9 9 6 4
20 -6 19 -6 -1 11 -35 31 -57 74 -44 87 8 8 10 7 5 -5 -8 -20 10 -35 21 -18 5
8 3 9 -5 5 -8 -6 -11 -2 -9 10 2 14 -2 18 -16 16 -11 -2 -15 1 -11 7 3 6 2 11
-4 11 -10 0 -27 38 -23 53 1 4 -3 7 -9 7 -5 0 -7 5 -3 11 4 8 9 7 15 -2 4 -7
5 -17 2 -23 -3 -5 -1 -6 5 -2 18 11 -4 47 -23 40 -11 -5 -13 -2 -9 10 3 9 11
13 17 9 6 -3 7 -1 3 6 -6 9 -11 9 -21 1 -9 -8 -14 -6 -19 5 -3 9 -2 13 3 10 5
-3 13 -1 16 5 4 6 3 10 -2 9 -24 -4 -34 4 -13 11 l25 8 -25 1 c-34 1 -58 51
-41 88 7 14 10 28 7 30 -2 2 -7 -5 -11 -16 -4 -12 -12 -18 -21 -14 -12 5 -12
7 2 18 18 12 12 35 -9 35 -7 0 -6 -4 3 -10 8 -5 12 -12 8 -15 -7 -7 -38 22
-38 35 0 5 8 7 18 4 9 -2 7 1 -5 7 -13 7 -23 16 -23 21 0 5 5 6 12 2 7 -5 8
-3 4 5 -5 7 -13 10 -20 8 -7 -3 -13 4 -13 16 -1 11 -7 24 -14 28 -6 4 -10 16
-7 27 3 11 1 26 -4 33 -8 11 -8 10 -4 -4 3 -11 2 -16 -4 -12 -6 3 -10 12 -10
20 0 7 -3 15 -7 18 -5 2 -2 2 5 0 7 -1 10 2 7 7 -3 6 -13 10 -21 10 -8 0 -12
5 -9 10 4 6 10 8 14 6 4 -3 8 5 8 16 2 20 1 20 -12 2 -13 -17 -16 -17 -25 -4
-5 8 -8 20 -5 27 2 7 0 15 -5 18 -6 4 -10 11 -10 16 0 6 4 8 8 5 4 -2 9 5 9
16 2 20 1 20 -12 2 -13 -17 -16 -17 -25 -4 -14 21 -13 27 13 50 12 12 15 19 7
16 -8 -3 -25 3 -38 14 -20 16 -21 23 -12 42 10 21 10 21 -3 5 -15 -18 -33 -24
-22 -8 3 5 -1 15 -8 23 -13 13 -28 42 -33 65 -1 7 -11 25 -23 41 -11 16 -17
33 -13 38 4 5 6 8 3 7 -7 -4 -31 26 -31 39 0 10 3 9 10 -2 6 -9 10 -10 10 -3
0 7 -8 17 -17 22 -10 6 -14 11 -9 11 6 0 1 6 -9 14 -17 12 -17 16 -6 30 8 9
11 19 7 23 -3 3 -6 1 -6 -5 0 -7 -7 -12 -16 -12 -14 0 -14 3 -4 16 11 12 11
15 -1 12 -8 -2 -13 3 -12 10 2 6 -5 12 -15 13 -13 0 -12 2 6 9 12 5 22 15 21
22 0 10 -2 10 -6 1 -2 -7 -9 -13 -15 -13 -12 0 -37 30 -38 45 0 6 4 4 9 -3 6
-11 9 -9 13 6 5 17 2 20 -16 17 -21 -4 -21 -4 -1 11 20 16 20 16 -2 9 -13 -3
-23 -2 -23 4 0 5 8 12 18 14 12 3 11 5 -6 6 -13 0 -20 6 -17 11 3 5 2 10 -3
10 -5 0 -17 12 -27 26 -9 15 -12 23 -6 20 16 -10 13 1 -6 24 -10 11 -17 23
-15 26 2 3 -5 12 -15 20 -17 14 -16 14 4 4 19 -9 22 -8 17 5 -4 8 -12 15 -20
15 -8 0 -14 4 -14 9 0 5 -7 17 -16 25 -8 9 -11 16 -5 16 6 0 11 5 11 11 0 5
-4 7 -10 4 -5 -3 -10 3 -10 14 0 13 -7 21 -17 21 -14 0 -15 2 -4 9 11 7 10 11
-5 20 -11 6 -15 11 -11 11 5 0 1 10 -7 22 -21 29 -20 35 5 43 11 4 18 9 16 12
-3 2 -14 0 -26 -6 -11 -6 -22 -7 -25 -2 -3 5 4 11 15 14 24 6 18 22 -14 38
-19 9 -18 7 3 -10 24 -19 24 -20 3 -18 -15 1 -24 11 -33 39 -6 21 -15 36 -20
33 -6 -3 -7 1 -4 9 4 10 1 16 -7 16 -10 0 -10 3 -2 11 16 16 -5 62 -25 54 -10
-3 -12 0 -8 10 3 8 1 15 -4 15 -6 0 -10 7 -10 15 0 9 -9 25 -20 37 -10 12 -17
25 -14 29 2 4 0 10 -5 14 -6 3 -7 13 -4 22 4 10 2 14 -4 10 -8 -5 -34 31 -37
53 -1 3 -4 10 -7 15 -4 6 -9 23 -13 38 -4 17 -11 25 -18 21 -7 -4 -8 -3 -4 4
4 7 2 12 -4 12 -6 0 -4 11 6 28 12 20 12 22 1 9 -9 -11 -18 -14 -21 -8 -4 5 4
17 16 25 18 13 19 16 5 16 -9 0 -17 -4 -17 -10 0 -5 -4 -10 -8 -10 -7 0 -81
149 -83 167 0 5 -6 15 -13 23 -17 19 -26 46 -19 54 3 3 14 -5 25 -17 l19 -22
-16 27 c-9 15 -22 25 -30 22 -15 -6 -59 81 -49 97 3 5 -3 9 -13 9 -15 0 -14 4
7 21 21 17 22 19 3 10 -32 -16 -41 -13 -18 5 20 16 19 16 -4 9 -15 -4 -21 -3
-17 3 3 5 -1 15 -9 22 -16 13 -21 50 -7 50 4 0 8 10 9 23 l1 22 -10 -22 c-6
-13 -15 -23 -20 -23 -11 0 -10 7 2 31 9 15 7 21 -7 26 -31 11 -44 25 -34 37 9
11 -8 45 -26 49 -4 1 -7 5 -5 10 1 4 -2 7 -8 7 -5 0 -10 4 -10 9 0 5 10 7 23
5 15 -3 14 -1 -6 7 -26 10 -27 12 -10 26 17 13 17 14 -4 8 -12 -3 -25 -1 -29
6 -4 8 -3 9 4 5 7 -4 12 -3 12 2 0 6 -7 12 -15 16 -8 3 -15 12 -15 21 0 8 -5
15 -12 15 -6 0 -8 3 -5 6 4 4 -3 20 -14 35 -11 16 -17 29 -13 29 3 0 1 7 -6
15 -7 8 -10 24 -7 34 3 14 1 18 -9 14 -10 -4 -12 0 -8 11 4 9 3 16 -2 15 -21
-4 -24 2 -13 24 12 21 11 21 -6 7 -17 -14 -18 -14 -6 7 10 20 9 22 -5 16 -11
-4 -15 -2 -11 4 4 6 1 18 -7 25 -7 8 -17 24 -20 36 -4 12 -12 22 -18 22 -6 0
-8 3 -5 6 3 4 -14 44 -38 91 -24 46 -39 81 -33 77 6 -4 0 8 -15 28 -31 40 -35
56 -9 38 9 -7 4 0 -13 16 -20 18 -24 25 -11 21 16 -6 17 -5 6 8 -7 8 -16 13
-20 10 -5 -3 -12 0 -16 6 -4 8 -3 9 4 5 7 -4 12 -3 12 3 0 5 -4 11 -8 13 -14
6 -52 78 -52 99 0 10 -4 19 -10 19 -5 0 -10 7 -10 16 0 9 -5 12 -12 8 -10 -6
-10 -4 0 7 17 19 15 32 -4 25 -14 -5 -15 -4 -4 9 11 13 10 14 -4 9 -12 -4 -15
-2 -11 9 4 8 0 21 -8 28 -21 21 -42 62 -39 77 2 6 -2 12 -8 12 -5 0 -9 6 -7
13 1 6 -4 11 -12 9 -12 -3 -12 -1 0 14 8 10 9 15 3 11 -7 -4 -14 -1 -17 7 -4
10 1 13 16 10 15 -3 13 -1 -5 7 -25 9 -29 14 -28 34 1 3 -6 13 -15 22 -9 8
-14 20 -12 27 2 6 -5 17 -17 24 -16 10 -16 12 -3 8 10 -3 16 -2 12 3 -3 5 1
11 7 14 8 2 9 8 4 13 -5 5 -11 4 -13 -3 -6 -18 -20 -16 -27 3 -3 8 -2 13 2 10
4 -2 14 0 22 5 13 9 13 10 0 8 -31 -3 -40 2 -40 22 0 11 -5 17 -10 14 -6 -4
-10 -3 -9 2 4 22 -2 43 -11 38 -5 -3 -7 0 -4 8 3 8 -2 21 -10 30 -8 8 -12 17
-9 21 4 3 2 6 -4 6 -16 0 -34 48 -21 56 7 5 8 3 3 -6 -5 -9 -4 -11 4 -6 16 11
3 26 -16 19 -10 -4 -14 -2 -10 4 4 6 0 19 -9 27 -8 9 -12 16 -8 16 4 0 0 8 -9
18 -10 10 -14 22 -10 25 3 4 1 7 -6 7 -7 0 -9 5 -6 10 3 6 1 10 -6 10 -7 0 -9
3 -6 6 3 4 -3 18 -13 32 -16 19 -17 28 -9 39 10 11 8 12 -6 7 -12 -5 -16 -4
-12 3 4 6 0 16 -8 23 -8 7 -15 21 -15 30 0 10 -3 20 -7 23 -5 2 -3 3 4 1 6 -1
19 4 30 12 17 14 17 15 -2 6 -25 -12 -66 0 -45 13 11 7 10 10 -2 19 -23 17
-58 78 -58 102 0 12 -7 25 -16 28 -9 4 -14 9 -11 12 3 4 -3 15 -13 27 -11 11
-17 23 -15 27 3 4 -2 13 -10 20 -8 7 -14 24 -13 39 2 31 -9 54 -22 46 -5 -3
-12 6 -16 20 -3 14 -10 25 -16 25 -5 0 -7 4 -3 9 3 5 0 15 -7 23 -13 14 -20
33 -21 56 0 6 -7 12 -15 12 -11 0 -12 3 -3 14 7 8 21 13 32 11 11 -2 17 0 14
5 -6 10 -24 8 -43 -4 -9 -5 -15 -1 -19 13 -3 12 -10 21 -15 21 -5 0 -6 5 -3
10 3 6 1 10 -5 10 -6 0 -9 4 -6 9 3 5 -2 19 -12 32 -22 29 -57 101 -54 112 1
4 -3 7 -9 7 -5 0 -8 4 -5 8 3 5 -1 9 -9 9 -8 0 -17 -8 -20 -18z m250 -409 c3
-5 1 -10 -4 -10 -6 0 -11 5 -11 10 0 6 2 10 4 10 3 0 8 -4 11 -10z m1070
-2160 c3 -5 1 -10 -4 -10 -6 0 -11 5 -11 10 0 6 2 10 4 10 3 0 8 -4 11 -10z
m45 -64 c0 -11 -19 -15 -25 -6 -3 5 1 10 9 10 9 0 16 -2 16 -4z m434 -902 c5
-14 4 -15 -9 -4 -17 14 -19 20 -6 20 5 0 12 -7 15 -16z m526 -1049 c7 -8 10
-15 6 -15 -3 0 -8 0 -11 0 -3 0 -5 3 -4 6 0 4 -5 11 -13 15 -8 5 -9 9 -2 9 6
0 17 -7 24 -15z"/>
<path d="M3770 6620 c0 -5 5 -10 11 -10 5 0 7 5 4 10 -3 6 -8 10 -11 10 -2 0
-4 -4 -4 -10z"/>
<path d="M3730 6615 c0 -5 5 -17 10 -25 5 -8 10 -10 10 -5 0 6 -5 17 -10 25
-5 8 -10 11 -10 5z"/>
<path d="M3750 6560 c0 -5 5 -10 10 -10 6 0 10 5 10 10 0 6 -4 10 -10 10 -5 0
-10 -4 -10 -10z"/>
<path d="M3775 6539 c-4 -6 -4 -13 -1 -16 3 -4 6 -1 6 6 0 7 5 9 12 5 7 -4 8
-3 4 4 -9 15 -13 15 -21 1z"/>
<path d="M3828 6472 c4 -11 1 -13 -8 -7 -8 5 -11 4 -6 -3 4 -6 12 -9 20 -6 16
6 17 31 0 31 -7 0 -10 -7 -6 -15z"/>
<path d="M3800 6443 c0 -6 8 -17 18 -24 16 -13 16 -13 2 6 -8 11 -16 22 -17
24 -2 2 -3 0 -3 -6z"/>
<path d="M3845 6420 c-3 -6 1 -7 9 -4 18 7 21 14 7 14 -6 0 -13 -4 -16 -10z"/>
<path d="M3855 6400 c-3 -5 -1 -10 4 -10 6 0 11 5 11 10 0 6 -2 10 -4 10 -3 0
-8 -4 -11 -10z"/>
<path d="M3868 6343 c7 -3 16 -2 19 1 4 3 -2 6 -13 5 -11 0 -14 -3 -6 -6z"/>
<path d="M3895 6329 c-7 -22 -2 -32 19 -35 7 -1 13 4 13 12 0 11 -3 11 -15 1
-13 -10 -14 -8 -8 16 7 31 0 37 -9 6z"/>
<path d="M3907 6256 c-4 -10 -1 -13 9 -9 15 6 19 23 5 23 -5 0 -11 -7 -14 -14z"/>
<path d="M3995 6240 c-3 -5 -1 -10 4 -10 6 0 11 5 11 10 0 6 -2 10 -4 10 -3 0
-8 -4 -11 -10z"/>
<path d="M3931 6233 c-2 -20 16 -24 30 -5 13 15 12 16 -3 4 -13 -10 -17 -10
-21 0 -4 9 -6 9 -6 1z"/>
<path d="M3960 6195 c-11 -13 -10 -14 4 -9 9 3 16 10 16 15 0 13 -6 11 -20 -6z"/>
<path d="M3997 6153 c-10 -9 -9 -23 1 -23 5 0 9 7 9 15 0 17 -1 18 -10 8z"/>
<path d="M3960 6120 c0 -5 5 -10 10 -10 6 0 10 5 10 10 0 6 -4 10 -10 10 -5 0
-10 -4 -10 -10z"/>
<path d="M3995 6109 c-4 -6 -5 -12 -2 -15 2 -3 7 2 10 11 7 17 1 20 -8 4z"/>
<path d="M4015 6080 c1 -11 5 -23 10 -27 4 -5 4 -2 0 6 -6 10 -4 13 7 9 9 -4
15 0 15 8 0 8 -3 12 -5 9 -3 -3 -10 0 -17 5 -8 7 -11 4 -10 -10z"/>
<path d="M3996 6045 c4 -8 11 -15 16 -15 6 0 5 6 -2 15 -7 8 -14 15 -16 15 -2
0 -1 -7 2 -15z"/>
<path d="M4047 6033 c3 -7 6 -13 8 -13 2 0 5 6 8 13 3 8 -1 14 -8 14 -7 0 -11
-6 -8 -14z"/>
<path d="M4045 5999 c-4 -6 -5 -12 -2 -15 2 -3 7 2 10 11 7 17 1 20 -8 4z"/>
<path d="M4086 5982 c-3 -5 1 -9 9 -9 8 0 12 4 9 9 -3 4 -7 8 -9 8 -2 0 -6 -4
-9 -8z"/>
<path d="M4050 5963 c0 -5 9 -19 20 -33 15 -18 18 -20 13 -6 -4 13 -3 17 5 12
8 -5 10 -2 5 9 -5 13 -7 14 -14 3 -8 -12 -13 -4 -10 15 0 4 -3 7 -9 7 -5 0
-10 -3 -10 -7z"/>
<path d="M4093 5897 c-3 -6 -1 -7 5 -3 5 3 12 1 14 -6 2 -6 12 -12 21 -14 9
-1 15 2 11 7 -3 5 -10 6 -16 3 -7 -5 -9 -2 -6 8 7 16 -19 21 -29 5z"/>
<path d="M4105 5842 c-10 -10 6 -21 22 -15 12 5 14 3 8 -7 -5 -8 -4 -11 3 -6
15 9 5 33 -13 33 -8 0 -17 -2 -20 -5z"/>
<path d="M4145 5799 c-4 -6 -5 -12 -2 -15 2 -3 7 2 10 11 7 17 1 20 -8 4z"/>
<path d="M4173 5795 c0 -8 4 -12 9 -9 5 3 6 10 3 15 -9 13 -12 11 -12 -6z"/>
<path d="M4215 5789 c-4 -6 -5 -12 -2 -15 2 -3 7 2 10 11 7 17 1 20 -8 4z"/>
<path d="M4198 5736 c-22 -16 -23 -23 -4 -23 8 0 14 5 13 11 -1 6 4 10 11 8 8
-1 11 2 7 8 -8 12 -6 12 -27 -4z"/>
<path d="M4190 5690 c-8 -5 -10 -10 -5 -10 6 0 17 5 25 10 8 5 11 10 5 10 -5
0 -17 -5 -25 -10z"/>
<path d="M4235 5621 c-3 -5 0 -13 6 -17 7 -4 9 -3 5 4 -3 5 0 13 6 15 9 4 10
6 1 6 -6 1 -14 -3 -18 -8z"/>
<path d="M4244 5566 c10 -8 15 -19 12 -25 -4 -5 -3 -12 2 -15 4 -2 9 4 9 15 1
11 -8 24 -20 30 -21 9 -21 9 -3 -5z"/>
<path d="M4287 5519 c7 -7 15 -10 18 -7 3 3 -2 9 -12 12 -14 6 -15 5 -6 -5z"/>
<path d="M4346 5478 c3 -5 10 -6 15 -3 13 9 11 12 -6 12 -8 0 -12 -4 -9 -9z"/>
<path d="M4311 5448 c9 -16 29 -17 29 -2 0 3 -5 2 -12 -2 -7 -5 -9 -2 -6 8 4
8 0 15 -7 15 -10 0 -11 -5 -4 -19z"/>
<path d="M4351 5408 c9 -16 29 -17 29 -2 0 3 -5 2 -12 -2 -7 -5 -9 -2 -6 8 4
8 0 15 -7 15 -10 0 -11 -5 -4 -19z"/>
<path d="M4316 5398 c3 -5 10 -6 15 -3 13 9 11 12 -6 12 -8 0 -12 -4 -9 -9z"/>
<path d="M4335 5381 c-3 -6 4 -15 16 -21 12 -7 19 -8 15 -2 -3 6 0 13 6 16 7
3 2 3 -11 0 -16 -4 -21 -3 -17 5 4 6 5 11 2 11 -3 0 -7 -4 -11 -9z"/>
<path d="M4373 5337 c-3 -6 -1 -7 5 -3 11 7 17 -7 12 -29 -1 -5 2 -7 6 -2 13
13 11 44 -3 44 -8 0 -17 -5 -20 -10z"/>
<path d="M4416 5287 c3 -10 9 -15 12 -12 3 3 0 11 -7 18 -10 9 -11 8 -5 -6z"/>
<path d="M4421 5250 c-1 -8 9 -21 22 -29 19 -13 21 -12 10 1 -7 8 -9 19 -5 23
4 5 2 5 -5 2 -6 -4 -14 -1 -16 5 -4 9 -6 8 -6 -2z"/>
<path d="M4443 5182 c-10 -7 -10 -12 0 -25 11 -16 12 -15 12 8 0 14 0 25 0 25
0 0 -6 -4 -12 -8z"/>
<path d="M4478 5143 c7 -3 16 -2 19 1 4 3 -2 6 -13 5 -11 0 -14 -3 -6 -6z"/>
<path d="M4510 5137 c0 -2 6 -10 14 -16 11 -9 16 -9 22 1 4 7 4 10 -1 6 -4 -4
-14 -3 -22 3 -7 6 -13 9 -13 6z"/>
<path d="M4468 5123 c7 -3 16 -2 19 1 4 3 -2 6 -13 5 -11 0 -14 -3 -6 -6z"/>
<path d="M4510 5100 c0 -5 5 -10 11 -10 5 0 7 5 4 10 -3 6 -8 10 -11 10 -2 0
-4 -4 -4 -10z"/>
<path d="M4575 5080 c-3 -5 -1 -10 4 -10 6 0 11 5 11 10 0 6 -2 10 -4 10 -3 0
-8 -4 -11 -10z"/>
<path d="M4553 5036 c1 -6 -4 -10 -11 -8 -8 1 -11 -2 -7 -8 5 -8 13 -6 26 6
23 21 23 21 5 21 -8 0 -14 -5 -13 -11z"/>
<path d="M2490 5000 c0 -5 0 -13 1 -16 0 -4 -3 -10 -8 -13 -5 -3 -27 -42 -48
-86 -22 -44 -43 -81 -47 -83 -5 -2 -8 -10 -8 -18 0 -8 -7 -26 -16 -39 -9 -14
-13 -25 -9 -25 3 0 -1 -7 -9 -16 -9 -8 -16 -22 -16 -30 0 -8 -5 -14 -11 -14
-5 0 -7 -4 -4 -10 3 -5 1 -10 -6 -10 -7 0 -9 -3 -6 -6 3 -4 -5 -26 -19 -50
-14 -24 -23 -44 -19 -44 3 0 -1 -7 -9 -16 -9 -8 -14 -19 -11 -24 3 -5 2 -10
-3 -12 -4 -1 -28 -43 -52 -93 -24 -49 -49 -93 -55 -97 -5 -4 -7 -8 -3 -8 4 0
-24 -61 -62 -135 -37 -74 -65 -135 -61 -135 3 0 2 -4 -4 -8 -12 -9 -135 -253
-135 -269 0 -6 -3 -13 -7 -15 -10 -4 -113 -212 -113 -227 0 -6 -4 -11 -9 -11
-8 0 -17 -21 -19 -44 0 -5 -4 -12 -9 -15 -11 -8 -117 -224 -115 -233 1 -5 -1
-8 -5 -8 -5 0 -19 -27 -33 -60 -14 -33 -28 -60 -32 -60 -5 0 -8 -4 -8 -10 0
-14 -264 -544 -272 -548 -5 -2 -8 -12 -8 -22 0 -10 -7 -25 -15 -33 -7 -8 -17
-26 -21 -41 -3 -14 -10 -26 -15 -26 -5 0 -8 -3 -7 -7 3 -10 -45 -107 -55 -111
-4 -2 -5 -7 -2 -12 3 -5 -1 -14 -8 -22 -7 -7 -14 -15 -15 -18 -15 -44 -28 -70
-35 -70 -4 0 -6 -4 -2 -9 3 -5 -2 -16 -10 -24 -8 -9 -15 -19 -15 -23 0 -13
-83 -179 -93 -185 -5 -4 -7 -11 -3 -17 3 -6 3 -12 -2 -14 -9 -4 -185 -354
-182 -364 1 -4 -2 -10 -7 -13 -5 -3 -48 -87 -97 -186 -49 -99 -94 -183 -100
-187 -6 -4 -7 -8 -2 -8 5 0 3 -7 -4 -15 -7 -8 -9 -15 -5 -15 4 0 2 -6 -4 -13
-14 -18 -481 -955 -481 -967 0 -4 -3 -10 -7 -12 -5 -1 -18 -24 -30 -50 l-23
-48 434 0 c373 0 435 2 446 15 7 8 17 15 22 15 7 0 6 -5 0 -13 -9 -10 -6 -13
12 -13 15 0 22 5 19 12 -3 8 5 11 24 9 28 -3 53 9 53 26 0 5 -4 9 -10 9 -5 0
-9 -5 -7 -11 1 -6 -4 -14 -11 -16 -20 -8 -9 21 13 34 26 16 35 16 31 1 -1 -7
-1 -9 2 -5 2 4 10 3 18 -4 12 -10 13 -9 8 4 -3 9 -14 19 -25 22 -11 4 -17 11
-14 16 4 5 13 5 24 -1 21 -11 31 -4 31 22 0 11 5 16 10 13 6 -3 10 -1 10 5 0
20 -24 5 -30 -18 -4 -16 -9 -19 -20 -12 -13 9 -13 11 0 20 9 6 11 10 3 10 -12
0 -39 -39 -35 -52 1 -3 -5 -9 -13 -12 -20 -7 -19 3 4 38 11 17 18 33 15 37 -2
4 0 10 6 14 5 3 10 1 10 -4 0 -18 27 -12 34 6 6 15 8 15 16 3 7 -11 10 -11 10
-2 0 7 -6 15 -13 18 -7 2 -13 13 -14 24 -1 13 3 17 13 13 8 -3 14 0 14 7 0 6
-4 8 -10 5 -5 -3 -10 -2 -10 3 0 6 7 13 16 16 23 9 24 8 18 -12 -5 -14 -4 -15
5 -2 9 12 11 13 11 1 0 -8 3 -11 6 -8 4 4 1 13 -5 21 -10 11 -7 17 11 30 12 9
17 16 11 16 -6 0 -18 -7 -27 -15 -16 -17 -30 -20 -21 -6 3 6 -3 14 -12 20 -19
11 -21 11 57 12 18 0 21 2 11 8 -11 7 -10 11 6 20 11 5 24 7 28 3 5 -4 5 -1 1
6 -5 8 -13 9 -26 2 -25 -14 -30 -13 -24 5 4 8 11 12 17 8 6 -4 7 -1 2 7 -6 10
-4 12 8 7 10 -4 17 -2 17 4 0 7 -10 9 -23 5 -17 -4 -24 -1 -24 9 0 8 5 15 11
14 30 -3 36 2 32 27 -3 17 -1 24 7 21 7 -2 11 -18 10 -35 -1 -18 2 -32 7 -32
4 0 7 12 5 26 -1 14 3 28 11 31 7 2 15 12 19 21 5 13 2 13 -14 -2 -19 -17 -21
-18 -27 -2 -4 10 -1 23 6 29 10 10 12 8 7 -6 -6 -17 -4 -16 19 2 15 11 31 18
37 14 5 -3 7 -1 3 5 -3 6 2 13 11 15 10 3 1 4 -19 2 -23 -1 -42 3 -49 11 -10
12 -5 13 27 10 22 -2 33 -2 26 1 -18 7 -4 23 16 17 14 -5 14 -4 3 4 -13 9 -13
13 -1 27 12 15 12 18 -2 26 -20 11 -17 61 3 67 12 3 12 2 0 -6 -9 -7 -10 -12
-2 -16 10 -6 15 6 12 27 -1 10 17 9 23 -2 3 -4 2 -11 -2 -15 -4 -4 -7 -22 -8
-39 -1 -18 1 -26 3 -19 3 6 9 10 14 7 5 -4 6 1 3 10 -4 9 -2 15 4 13 9 -3 12
1 12 18 0 4 -7 1 -15 -6 -28 -23 -15 5 15 33 34 32 37 42 15 55 -14 7 -13 11
4 26 18 16 23 17 38 5 17 -13 17 -13 3 5 -14 18 -13 19 3 13 11 -4 16 -3 12 4
-4 6 -13 8 -20 5 -21 -8 -26 5 -9 22 14 14 13 17 -10 31 -14 9 -26 19 -26 23
0 12 24 5 36 -11 8 -10 15 -11 31 -3 11 6 24 8 28 4 5 -4 5 -2 1 5 -3 6 -1 15
6 20 7 4 20 17 28 27 12 16 12 18 1 11 -11 -6 -13 -4 -8 8 4 12 1 15 -11 11
-12 -4 -11 0 6 14 12 11 22 28 22 37 0 10 5 13 13 9 9 -6 9 -5 0 8 -13 15 -8
28 9 28 5 0 6 -4 3 -10 -3 -6 1 -7 10 -4 9 4 14 9 11 12 -9 8 -56 11 -51 2 3
-4 -2 -10 -10 -14 -17 -6 -19 -1 -5 23 7 13 18 17 40 15 19 -2 29 0 25 6 -3 6
-1 10 6 10 7 0 10 3 7 6 -4 3 -15 1 -25 -4 -12 -7 -25 -7 -34 -1 -7 5 -12 9
-9 10 3 0 14 3 25 5 11 3 29 6 40 6 11 0 14 2 7 5 -9 3 -5 13 13 31 24 24 25
26 8 36 -20 12 -29 36 -13 36 5 0 13 -7 18 -16 5 -9 18 -14 28 -12 10 2 17 7
14 11 -3 5 3 13 13 18 9 6 17 14 17 19 0 6 -9 2 -19 -7 -11 -9 -18 -20 -15
-25 10 -16 -24 -8 -37 9 -12 15 -12 16 3 10 10 -3 20 -1 24 5 4 6 3 8 -4 4 -6
-3 -14 -1 -18 5 -5 8 1 10 19 7 18 -3 24 -1 20 8 -3 7 -12 10 -21 6 -15 -5
-15 -4 -3 11 17 22 31 22 31 0 0 -15 2 -16 10 -3 15 25 -18 35 -42 13 -21 -17
-21 -17 -15 0 4 10 7 21 7 23 0 2 7 4 16 4 9 0 14 6 11 13 -2 6 -13 11 -24 10
-12 -1 -20 4 -20 13 0 10 7 12 21 8 17 -4 18 -3 6 6 -13 9 -12 11 5 8 11 -2
21 -9 21 -16 1 -6 2 -20 3 -29 1 -14 6 -11 17 10 8 15 12 33 8 39 -5 8 -2 9
10 5 10 -4 20 -7 22 -7 3 0 -4 -13 -15 -29 -12 -16 -21 -33 -21 -37 0 -5 11 7
24 26 22 33 25 67 5 54 -5 -3 -9 2 -9 10 0 18 16 21 25 6 4 -6 16 -8 27 -4 15
4 18 3 13 -6 -5 -9 -4 -11 4 -6 18 11 2 28 -21 20 -17 -5 -18 -3 -9 14 6 11
23 30 37 41 16 12 21 21 13 21 -8 1 -5 6 7 13 12 7 19 17 17 23 -4 13 28 15
44 2 7 -5 14 -5 18 2 10 15 23 12 28 -7 4 -17 5 -17 6 0 0 10 5 16 9 13 4 -2
8 4 8 14 0 10 -3 17 -7 14 -4 -2 -10 3 -13 12 -9 25 -8 25 17 9 15 -10 23 -23
21 -38 -1 -12 -3 -26 -3 -30 -1 -5 -6 -5 -13 -1 -7 5 -8 3 -3 -5 5 -9 10 -10
18 -2 9 9 12 19 16 64 1 5 6 5 11 2 6 -4 8 -11 5 -16 -4 -5 -1 -17 5 -26 9
-16 10 -15 5 5 -4 13 -2 22 4 22 11 0 15 -13 12 -40 -2 -9 4 -6 14 8 9 12 21
19 27 16 7 -4 5 -10 -6 -16 -9 -5 -16 -13 -16 -19 0 -6 15 4 33 20 37 36 37
36 63 15 18 -15 18 -15 -9 -9 -19 4 -26 2 -22 -5 10 -16 40 -12 60 10 20 22
44 28 27 7 -9 -10 -6 -17 8 -30 11 -9 20 -12 20 -7 0 6 -7 13 -16 17 -15 6
-15 8 2 20 23 17 40 17 26 0 -8 -9 -8 -17 0 -27 8 -12 9 -12 4 2 -3 10 -1 20
4 23 5 3 11 -3 13 -12 3 -12 5 -10 6 7 1 37 4 60 7 60 12 0 54 -25 54 -32 0
-12 -18 -10 -26 3 -6 11 -23 -6 -24 -23 0 -16 39 -28 62 -19 17 7 19 10 6 10
-10 1 -18 4 -18 7 0 13 22 44 31 44 6 0 6 -6 0 -19 -12 -22 7 -35 37 -24 14 5
15 3 5 -8 -7 -7 -13 -17 -13 -23 0 -5 7 -1 16 10 14 18 15 18 9 -6 -5 -18 1
-14 21 17 15 23 32 39 37 36 4 -3 0 -14 -10 -26 -10 -11 -13 -17 -6 -14 6 4
13 4 16 0 2 -5 2 -3 1 4 -2 7 1 15 6 18 6 4 10 1 10 -6 0 -7 6 -5 13 6 10 12
16 14 21 7 4 -7 2 -12 -3 -12 -6 0 -11 -4 -11 -10 0 -5 15 -1 33 8 17 10 39
17 47 16 8 -1 21 -2 28 -3 7 0 11 -5 7 -11 -3 -5 -13 -7 -23 -4 -16 5 -16 5 0
-6 11 -6 15 -17 11 -28 -3 -9 -3 -14 1 -10 4 3 8 12 10 20 2 20 43 58 53 50 4
-4 -1 3 -11 16 -12 13 -14 22 -7 22 7 0 10 4 7 8 -2 4 8 8 23 7 16 0 27 -5 24
-11 -2 -6 -10 -11 -18 -11 -8 0 -11 5 -8 10 3 6 1 7 -6 3 -7 -5 -9 -12 -3 -19
19 -24 20 -57 4 -67 -10 -5 -12 -10 -6 -10 19 0 35 26 28 46 -6 18 -6 18 11 2
15 -14 16 -20 5 -32 -7 -9 -8 -16 -2 -16 5 0 13 8 17 18 7 16 8 15 15 -3 7
-15 9 -16 9 -4 1 9 -10 24 -24 33 -14 9 -25 21 -25 27 0 8 5 7 15 -1 8 -7 15
-9 15 -4 0 5 9 -4 19 -19 11 -18 21 -25 25 -18 7 10 -28 71 -40 71 -3 0 -3 -4
0 -8 3 -5 -1 -9 -8 -9 -8 0 -12 7 -9 14 3 9 12 11 22 7 18 -7 20 -7 73 -2 20
3 35 1 32 -4 -3 -4 0 -8 6 -8 6 0 8 -5 4 -11 -4 -8 -9 -7 -15 2 -5 8 -9 10 -9
5 0 -5 -7 -3 -15 4 -11 9 -15 9 -15 1 0 -7 -4 -10 -9 -6 -5 3 -12 1 -16 -5 -3
-6 1 -13 9 -16 9 -3 13 -10 10 -15 -3 -5 0 -8 7 -7 6 2 13 -2 16 -8 2 -7 -4
-11 -13 -10 -23 2 -29 -20 -8 -28 15 -6 15 -4 3 10 -12 15 -12 17 1 12 8 -3
23 1 32 9 14 13 18 12 27 -5 11 -21 52 -37 48 -20 -1 6 4 13 12 16 9 3 11 0 7
-9 -4 -8 -1 -6 8 4 8 11 12 26 8 35 -5 14 -3 15 10 4 9 -7 15 -20 13 -30 -1
-9 0 -11 2 -4 3 7 8 10 13 7 5 -3 7 -13 3 -23 -3 -11 1 -9 11 6 10 12 22 19
28 16 7 -4 5 -10 -6 -16 -9 -5 -16 -13 -16 -19 0 -6 15 4 33 20 37 36 37 36
63 15 18 -15 18 -15 -9 -9 -19 4 -26 2 -22 -5 10 -16 40 -12 60 10 20 22 44
28 27 7 -9 -10 -6 -17 8 -30 11 -9 20 -12 20 -7 0 6 -7 13 -16 17 -15 6 -15 8
2 20 23 17 40 17 26 0 -8 -9 -8 -17 0 -27 8 -12 9 -12 4 2 -3 10 -1 20 4 23 5
3 11 -3 13 -12 3 -12 5 -10 6 7 1 37 4 60 7 60 12 0 54 -25 54 -32 0 -12 -18
-10 -26 3 -5 8 -10 6 -16 -6 -15 -25 6 -42 28 -24 10 8 25 14 35 14 10 0 18 4
18 8 -1 12 33 36 51 36 12 0 11 -2 -3 -10 -13 -8 -15 -15 -7 -28 5 -10 7 -21
4 -24 -3 -3 -1 -14 6 -24 11 -17 11 -17 6 1 -7 22 20 70 35 61 5 -4 3 -13 -6
-21 -8 -9 -15 -23 -14 -32 0 -14 2 -14 6 -2 4 8 12 21 20 28 7 8 11 18 8 23
-4 5 -2 9 4 9 18 0 21 -17 6 -36 -19 -26 -19 -43 1 -18 14 18 15 18 9 -6 -5
-19 -4 -22 4 -10 6 8 8 23 5 34 -6 18 -5 18 17 2 13 -9 28 -16 34 -16 5 0 4 4
-4 9 -19 12 -21 49 -4 55 9 4 12 -1 9 -18 -3 -15 1 -27 10 -30 8 -3 11 -13 8
-23 -5 -15 -4 -15 5 -3 6 9 7 18 1 24 -22 22 -8 28 14 7 14 -13 31 -21 38 -18
9 4 7 6 -4 6 -23 1 -23 15 -1 32 15 12 16 12 11 -3 -4 -10 -1 -19 7 -22 9 -3
12 -13 9 -23 -5 -15 -4 -15 5 -3 16 23 59 22 76 -3 8 -12 15 -16 15 -10 0 19
-32 38 -63 38 -17 0 -32 6 -34 12 -3 8 5 10 22 7 17 -3 24 -1 20 6 -10 17 4
11 27 -10 21 -20 21 -20 35 0 8 11 19 20 25 20 6 0 3 -9 -6 -19 -10 -11 -16
-28 -13 -38 4 -16 5 -15 6 2 1 28 20 45 39 38 10 -4 13 -2 8 5 -14 23 7 12 37
-20 17 -17 27 -24 24 -14 -4 10 -2 27 4 38 8 15 8 23 -1 32 -8 8 -10 6 -5 -9
5 -14 2 -13 -9 5 -8 14 -15 19 -16 12 0 -10 -5 -10 -20 -2 -19 10 -26 4 -21
-23 1 -5 -4 -7 -11 -5 -7 3 -13 10 -13 15 0 6 -4 15 -9 20 -5 4 -6 3 -3 -4 8
-12 -10 -12 -30 0 -6 4 -14 1 -16 -5 -4 -10 -6 -10 -6 0 -1 9 -6 10 -19 3 -13
-7 -19 -6 -19 2 0 9 30 12 103 12 56 0 100 -3 97 -7 -2 -5 0 -8 6 -8 5 0 11 5
13 12 3 7 7 5 11 -6 4 -9 3 -15 -1 -12 -5 3 -8 -5 -7 -17 1 -12 -3 -25 -9 -29
-6 -4 -7 -10 -4 -14 8 -7 57 45 58 60 0 6 -6 1 -14 -9 -13 -19 -14 -18 -13 6
1 15 7 25 13 22 12 -4 28 26 19 35 -3 3 -5 0 -5 -6 0 -7 -5 -12 -11 -12 -5 0
-8 4 -4 9 3 5 1 12 -5 16 -6 4 -8 10 -5 15 3 5 -1 23 -10 39 -11 22 -12 32 -3
37 7 5 8 3 3 -6 -5 -9 -4 -11 4 -6 9 6 9 11 0 22 -13 16 -23 19 -14 4 3 -5 2
-10 -3 -10 -6 0 -13 7 -16 16 -3 8 -2 12 4 9 6 -3 10 -1 10 6 0 7 8 5 22 -7
13 -12 18 -13 13 -4 -5 8 -17 21 -27 28 -16 12 -17 16 -6 30 12 15 11 16 -5 3
-13 -10 -15 -17 -6 -27 8 -10 8 -14 0 -14 -11 0 -15 13 -12 38 1 7 -5 19 -13
28 -16 15 -11 48 5 38 5 -3 6 -10 3 -16 -8 -12 14 -28 36 -27 9 0 6 4 -7 9
-17 7 -21 15 -17 37 3 21 2 24 -6 13 -5 -8 -10 -11 -10 -6 0 5 -8 2 -17 -5
-15 -12 -16 -12 -10 4 3 9 3 17 -2 17 -9 0 -36 79 -32 98 1 6 -2 12 -7 12 -15
0 -22 29 -10 36 6 4 8 3 4 -4 -3 -6 -1 -14 5 -18 8 -4 9 -3 5 4 -4 7 0 12 11
13 16 0 16 1 -2 8 -11 5 -23 7 -27 5 -4 -3 -9 0 -13 6 -3 5 1 10 9 10 8 0 18
4 21 10 4 6 -4 9 -17 7 -15 -1 -23 3 -23 13 0 8 -4 18 -8 21 -5 3 -9 12 -11
20 -1 8 -8 25 -16 39 -7 14 -13 26 -12 28 7 9 0 42 -8 37 -5 -3 -7 0 -4 8 3 8
1 18 -5 22 -6 3 -11 15 -11 26 0 10 -4 19 -10 19 -5 0 -7 7 -4 15 4 8 2 15 -3
15 -5 0 -10 6 -10 13 0 6 -7 28 -16 47 l-17 35 -650 0 c-457 0 -651 3 -654 11
-2 6 8 10 25 9 17 -1 33 3 36 8 3 6 1 7 -4 4 -6 -4 -17 1 -24 10 -12 15 -12
16 6 10 19 -7 19 -6 2 7 -20 16 -13 23 21 20 26 -2 27 0 5 17 -11 10 -14 10
-9 2 4 -7 2 -13 -3 -13 -12 0 -15 23 -4 33 3 4 14 0 24 -9 14 -12 18 -13 25
-2 4 7 4 10 -1 6 -9 -8 -40 20 -31 29 3 3 12 0 20 -6 11 -9 20 -10 35 -1 12 6
21 13 21 16 0 2 -9 0 -19 -6 -26 -13 -31 -13 -25 4 3 8 1 17 -5 21 -7 3 -8 0
-5 -10 4 -11 2 -14 -9 -9 -10 3 -20 -2 -27 -15 -6 -12 -16 -21 -22 -21 -9 0
-9 3 -1 11 6 6 9 18 6 26 -3 7 -2 13 3 12 24 -4 36 2 30 16 -6 18 24 17 36 0
9 -12 50 -16 42 -4 -2 4 -12 5 -21 2 -11 -4 -14 -3 -9 5 7 11 -6 17 -28 13 -5
-1 -6 5 -3 12 3 8 -1 24 -9 35 -13 19 -13 21 6 19 11 -1 19 -6 16 -12 -2 -6 2
-19 9 -29 11 -14 17 -16 32 -6 15 9 15 11 1 6 -9 -2 -22 2 -29 10 -10 13 -8
14 15 10 15 -3 24 -1 21 5 -4 5 -10 7 -15 4 -5 -3 -11 -1 -15 5 -3 5 -1 10 6
10 7 0 5 8 -6 20 -10 11 -13 20 -8 20 6 0 21 -15 35 -32 27 -37 31 -75 8 -70
-8 2 -11 0 -7 -4 20 -21 33 -10 33 26 0 21 -3 37 -6 36 -3 -2 -15 10 -28 25
-26 32 -19 39 10 12 16 -15 18 -15 13 -1 -4 9 -2 19 4 23 14 8 14 25 1 25 -6
0 -9 -5 -8 -11 2 -6 -3 -14 -11 -17 -9 -3 -11 0 -7 7 4 7 2 18 -4 26 -9 11 -7
14 12 13 26 -2 50 -17 44 -27 -3 -4 6 -7 20 -7 13 0 24 4 24 8 0 5 -8 8 -17 6
-10 -2 -18 3 -17 10 4 43 4 44 17 34 10 -8 13 -6 14 10 1 12 -5 22 -18 25 -10
3 -19 10 -19 15 0 5 4 6 10 3 6 -4 7 1 4 12 -4 13 0 11 16 -7 l22 -25 -16 28
c-9 15 -12 27 -6 27 6 0 13 -7 16 -15 4 -8 10 -12 16 -9 5 3 0 13 -11 21 -12
8 -21 19 -21 26 0 8 3 8 12 -1 7 -7 16 -12 22 -12 5 0 1 7 -10 16 -15 12 -15
15 -2 10 18 -5 31 16 22 37 -3 10 5 13 31 12 30 -2 42 8 14 11 -22 3 -23 5 -9
15 12 9 12 10 -3 5 -12 -4 -17 -2 -14 6 2 7 13 12 23 10 16 -2 17 -1 4 7 -8 6
-13 11 -10 12 3 0 13 2 23 4 13 2 17 -1 13 -11 -3 -8 -1 -14 5 -14 15 0 6 35
-9 36 -25 3 -27 5 -9 15 12 7 16 17 11 32 -5 18 -4 20 7 10 7 -7 18 -13 24
-13 5 0 2 5 -7 11 -10 5 -18 15 -18 21 0 7 5 6 15 -2 20 -16 40 -3 24 17 -11
12 -8 13 17 7 16 -4 26 -4 23 0 -4 4 -19 8 -35 10 -15 2 -30 8 -32 14 -2 7 7
9 25 6 27 -5 27 -5 8 11 l-20 16 20 -3 c11 -2 24 -7 28 -13 5 -6 7 -4 4 5 -2
8 -10 14 -16 12 -6 -1 -11 7 -11 18 0 11 5 20 11 20 5 0 7 -4 4 -10 -4 -6 1
-7 11 -3 16 6 15 8 -4 16 -25 12 -29 24 -7 24 8 0 15 -4 15 -9 0 -4 5 -8 11
-8 5 0 8 4 5 9 -3 5 0 11 7 14 8 3 19 -4 26 -15 11 -18 11 -20 -3 -15 -8 3
-18 2 -20 -2 -7 -11 50 -8 61 2 4 5 2 7 -4 5 -7 -1 -24 11 -38 27 -15 17 -24
25 -21 19 3 -7 0 -14 -7 -17 -10 -3 -14 4 -14 23 0 16 3 29 6 28 22 -2 32 4
27 17 -3 8 -2 15 3 15 4 0 19 9 32 21 21 19 22 21 4 17 -12 -2 -21 3 -23 15
-2 9 2 17 8 17 6 0 9 -4 6 -8 -2 -4 4 -9 15 -9 10 -1 19 3 19 8 0 6 5 7 10 4
7 -5 8 -11 1 -19 -7 -8 -4 -12 12 -13 17 -2 19 0 7 7 -8 5 -11 10 -6 10 5 0 3
7 -4 15 -10 12 -10 18 0 30 9 10 9 15 1 15 -6 0 -11 -6 -11 -12 0 -9 -4 -8
-10 2 -16 24 -12 29 21 25 21 -3 29 0 26 8 -2 7 -12 11 -22 9 -9 -2 -15 1 -12
5 3 5 2 15 -3 23 -10 15 5 40 23 40 8 0 8 -3 0 -11 -13 -13 -6 -42 8 -33 5 3
9 0 9 -5 0 -6 5 -11 11 -11 8 0 8 4 0 14 -10 11 -8 17 6 25 10 6 13 11 6 11
-6 0 -15 -4 -18 -10 -3 -5 -12 -10 -18 -10 -7 1 -1 10 13 22 14 12 18 19 8 15
-10 -3 -19 0 -22 9 -9 24 -7 27 8 15 7 -6 21 -8 30 -5 15 6 15 8 -1 20 -10 7
-13 14 -6 14 6 0 19 -7 27 -16 9 -8 16 -11 16 -6 0 5 -9 16 -21 23 l-21 14 21
25 c22 26 28 21 11 -10 -7 -13 -6 -19 4 -23 9 -4 12 0 9 13 -3 12 2 20 16 25
12 3 18 11 15 17 -5 7 2 9 22 4 23 -5 25 -4 12 4 -10 6 -25 10 -34 8 -9 -2
-19 3 -21 10 -3 7 1 10 10 6 8 -3 25 8 41 26 15 18 31 28 37 24 8 -5 9 -3 5 5
-5 7 -14 10 -20 8 -27 -11 -59 34 -35 49 8 5 13 -9 10 -28 0 -5 4 -8 9 -8 9 0
14 14 11 33 -1 4 6 7 16 5 11 -2 18 4 20 17 2 15 1 16 -5 5 -4 -8 -16 -16 -27
-17 -17 -2 -21 4 -20 27 1 27 15 57 15 32 0 -7 8 -5 20 5 11 9 17 19 15 21 -3
3 -11 -1 -20 -8 -9 -8 -15 -9 -15 -2 0 6 8 16 18 21 9 6 12 11 6 11 -5 0 -15
-5 -22 -12 -9 -9 -12 -9 -12 0 0 13 35 34 43 26 3 -3 3 4 0 17 -5 17 -3 20 7
14 9 -5 11 -4 6 4 -9 13 -26 5 -26 -12 0 -7 -9 -18 -21 -25 -19 -12 -20 -11
-14 7 4 13 2 21 -5 21 -6 0 -9 -4 -6 -9 3 -5 -1 -12 -10 -15 -8 -3 -12 -11 -9
-17 4 -5 -1 -17 -11 -25 -11 -9 -13 -12 -5 -8 9 5 12 3 7 -5 -4 -6 -2 -18 4
-27 11 -12 9 -14 -11 -12 -14 2 -23 -2 -22 -9 3 -15 -25 -25 -33 -11 -4 7 -3
8 4 4 11 -6 17 12 13 36 0 4 6 5 14 2 11 -4 13 -2 10 9 -4 8 0 21 7 28 7 8 13
19 13 24 1 18 28 65 37 65 5 0 6 -4 3 -10 -3 -5 -1 -10 4 -10 16 0 13 11 -9
35 -18 20 -19 23 -5 35 9 7 15 8 15 2 0 -6 -6 -13 -12 -15 -10 -4 -10 -6 -1
-6 15 -1 26 16 18 29 -4 7 -13 7 -26 0 -13 -8 -19 -7 -19 0 0 6 11 15 25 20
29 11 34 20 6 13 -14 -3 -21 2 -27 19 -4 12 -7 27 -6 31 1 5 -2 6 -8 2 -6 -4
-5 -16 5 -36 9 -16 11 -29 6 -29 -8 0 -23 32 -25 58 -1 7 -7 17 -15 21 -10 7
-11 10 0 16 9 6 6 11 -10 17 -12 4 -20 12 -16 17 3 5 1 12 -5 16 -6 4 -8 11
-5 16 4 5 1 9 -4 9 -6 0 -11 4 -11 10 0 5 7 7 16 3 8 -3 13 -12 10 -20 -3 -8
-1 -11 4 -8 6 3 10 1 10 -6 0 -7 3 -10 6 -7 10 10 -15 46 -37 53 -20 7 -20 7
-2 21 17 14 17 15 -2 10 -16 -4 -25 5 -42 42 -20 41 -21 48 -8 58 14 10 14 12
0 18 -9 3 -13 2 -10 -4 3 -5 0 -7 -8 -4 -8 3 -14 17 -14 32 1 16 -10 38 -25
55 -18 19 -24 35 -20 49 4 16 2 19 -9 13 -8 -5 -11 -5 -7 0 4 4 0 14 -10 22
-16 12 -16 13 1 7 13 -5 16 -2 11 10 -3 9 -9 14 -13 12 -4 -3 -13 4 -20 16 -7
11 -8 17 -2 13 6 -3 11 -1 11 4 0 6 -7 11 -16 11 -8 0 -13 4 -9 9 3 5 1 12 -5
16 -6 4 -8 11 -5 16 4 5 1 9 -5 9 -7 0 -9 7 -6 16 3 8 2 13 -3 10 -5 -3 -12 4
-16 17 -9 27 -8 25 -26 62 -7 17 -17 33 -22 36 -5 3 -8 9 -7 13 4 12 -22 66
-31 66 -5 0 -9 -4 -9 -10z m446 -1025 c-2 -5 -9 -9 -15 -7 -14 3 -15 -15 -1
-21 6 -3 5 -4 -2 -3 -7 2 -12 12 -10 22 2 10 4 27 5 37 1 18 2 18 14 1 7 -10
12 -23 9 -29z m-42 -53 c2 -4 1 -14 -5 -22 -5 -8 -9 -11 -9 -7 0 5 -5 5 -10 2
-6 -4 -8 -11 -4 -16 7 -13 44 19 44 38 0 7 5 13 10 13 15 0 12 -16 -5 -30 -8
-7 -13 -16 -10 -20 2 -4 -7 -12 -21 -19 -30 -13 -35 -14 -31 -2 1 5 -2 8 -8 8
-5 -1 -9 -6 -7 -10 1 -5 -3 -5 -9 -1 -7 4 -9 3 -5 -4 3 -6 2 -13 -4 -17 -6 -4
-8 -11 -5 -16 4 -5 2 -9 -3 -9 -4 0 -16 -16 -25 -35 -9 -19 -22 -35 -29 -35
-8 0 -9 -3 -3 -8 19 -14 15 -30 -6 -25 -16 5 -18 8 -7 14 7 5 9 9 5 9 -5 0 1
12 12 26 11 14 17 33 14 42 -4 13 -3 14 5 4 7 -11 11 -8 17 10 4 12 8 31 8 40
0 9 5 16 11 15 6 -1 10 4 9 11 -2 6 5 12 15 12 25 1 57 26 40 33 -9 4 -9 6 -1
6 6 1 14 -3 17 -7z m46 -92 c0 -13 -39 -42 -49 -36 -16 10 -24 -13 -10 -30 6
-8 9 -17 6 -20 -9 -9 -29 35 -21 48 5 7 2 8 -7 3 -12 -8 -12 -6 -1 8 8 9 11
21 8 26 -11 17 25 30 51 18 13 -5 23 -13 23 -17z m-91 -24 c-4 -5 -4 -17 2
-28 12 -23 -14 -62 -53 -79 -29 -12 -36 -33 -17 -44 7 -5 4 -14 -7 -26 -19
-21 -27 -49 -15 -49 4 0 8 -7 8 -15 0 -8 -4 -12 -8 -9 -14 8 -20 -15 -9 -36
13 -24 4 -46 -13 -31 -7 5 -24 8 -39 6 -36 -4 -35 6 1 28 21 12 29 23 26 38
-4 18 -2 19 13 7 15 -12 16 -11 3 5 -10 13 -10 17 -1 17 9 0 9 4 -1 17 -12 14
-12 16 0 8 10 -6 12 -4 6 5 -6 9 -4 11 5 5 9 -6 11 -4 5 5 -4 7 -2 16 6 21 10
6 10 9 2 9 -7 0 -10 7 -6 18 3 11 0 9 -11 -6 -10 -12 -22 -19 -28 -16 -7 4 -8
2 -4 -5 4 -6 12 -8 18 -5 6 4 9 1 6 -7 -3 -8 -11 -14 -19 -14 -8 0 -14 -5 -14
-12 0 -6 -3 -15 -8 -19 -4 -4 -6 4 -5 19 1 14 7 23 12 20 5 -4 7 0 4 8 -8 20
22 54 47 54 14 0 20 7 20 21 0 11 12 39 28 62 15 23 24 42 21 42 -4 0 0 7 7
16 12 14 14 14 20 -3 4 -10 3 -22 -2 -27z m-35 -117 c-3 -6 0 -15 7 -20 9 -6
10 -9 2 -9 -6 0 -15 5 -18 10 -4 6 -12 8 -18 4 -7 -3 -3 2 7 10 23 19 30 20
20 5z m-91 -97 c-7 -5 -11 -18 -9 -29 4 -17 1 -20 -11 -16 -11 4 -14 2 -9 -5
3 -6 -3 -16 -14 -22 -22 -12 -23 -35 -2 -35 16 0 19 -11 8 -22 -5 -5 -6 -2 -1
6 5 10 4 12 -4 7 -15 -10 -4 -27 13 -20 8 3 17 1 20 -5 7 -11 -32 -36 -42 -27
-3 3 1 6 9 6 8 0 4 7 -10 16 -16 12 -19 19 -11 24 9 5 9 9 1 14 -10 7 -16 -6
-12 -28 1 -5 -5 -6 -13 -3 -9 4 -20 -1 -25 -11 -5 -9 -13 -13 -17 -9 -5 5 -2
12 6 17 8 5 16 13 16 17 5 26 18 53 25 53 5 0 8 3 8 8 -1 4 0 10 1 15 1 4 3
12 4 17 0 6 6 10 11 9 6 0 9 -9 8 -20 -2 -10 1 -19 6 -19 11 0 8 41 -4 61 -7
12 -6 12 7 1 12 -10 17 -10 27 1 6 8 9 16 7 19 -1 3 2 1 8 -4 8 -6 7 -11 -1
-16z m-73 -153 c0 7 5 9 10 6 6 -4 8 -10 5 -15 -3 -5 2 -13 11 -18 11 -6 13
-11 5 -16 -6 -4 -11 -2 -11 3 0 6 -4 11 -9 11 -5 0 -8 -13 -6 -28 2 -16 -1
-35 -6 -43 -7 -12 -9 -12 -9 1 -1 12 -3 11 -11 -3 -5 -9 -7 -22 -4 -27 3 -6 2
-10 -4 -10 -6 0 -8 -6 -5 -14 3 -8 0 -17 -5 -21 -6 -3 -8 -12 -5 -18 4 -7 4
-9 -1 -5 -4 4 -14 3 -21 -3 -10 -8 -8 -16 14 -35 15 -13 22 -24 15 -24 -7 0
-16 7 -21 15 -7 13 -10 12 -20 -9 -7 -15 -17 -23 -29 -21 -10 2 -22 4 -27 4
-13 1 3 16 17 16 7 1 15 -4 19 -10 5 -6 8 -6 9 3 1 6 2 18 3 25 1 6 -5 17 -13
23 -18 14 -5 38 16 30 20 -8 42 22 37 48 -2 11 3 27 10 35 8 9 16 23 18 31 2
8 8 18 13 22 6 5 4 8 -5 8 -12 0 -12 2 -2 9 11 7 11 9 -2 14 -9 4 -15 1 -13
-6 1 -7 -7 -11 -18 -9 -15 2 -16 0 -7 -6 11 -8 11 -10 -1 -15 -8 -3 -17 -3
-20 0 -10 9 5 33 19 33 8 0 17 7 20 15 5 12 10 13 20 4 11 -9 14 -9 14 0z
m-23 -54 c0 -8 -4 -15 -9 -15 -5 0 -7 -4 -3 -9 6 -10 -11 -24 -33 -27 -8 -2
-11 3 -8 11 3 8 0 13 -7 11 -7 -1 -9 -1 -4 1 4 3 5 9 2 14 -4 5 0 6 7 4 8 -3
22 1 33 9 11 9 20 16 21 16 0 0 1 -7 1 -15z m-44 -58 c4 3 8 1 8 -5 1 -7 2
-18 3 -24 3 -19 -14 -38 -28 -32 -7 3 -18 -2 -25 -10 -10 -12 -9 -20 4 -40 16
-24 16 -25 -4 -21 -20 4 -34 -8 -37 -33 -2 -8 6 -10 23 -8 19 4 23 2 19 -11
-5 -13 -4 -14 9 -3 10 8 15 9 15 1 0 -6 -6 -12 -12 -13 -7 0 -17 -2 -23 -2 -5
-1 -16 -6 -24 -10 -11 -7 -13 -5 -8 6 6 18 -1 30 -14 22 -5 -3 -4 -15 2 -27
10 -21 10 -21 -5 -3 -11 14 -16 15 -16 6 0 -9 -5 -7 -14 6 -9 12 -11 23 -5 30
5 6 6 14 3 17 -4 4 3 5 15 2 22 -4 30 10 9 17 -22 8 1 25 32 23 36 -2 37 0 9
16 -17 9 -20 8 -14 -2 5 -8 4 -10 -3 -5 -18 11 -14 29 4 22 15 -6 15 -4 3 11
-11 13 -11 15 -1 9 9 -5 13 -3 11 5 -3 18 11 52 25 61 6 4 15 3 22 -2 6 -6 14
-7 17 -3z m-129 -213 c3 -8 10 -13 15 -9 12 7 30 -25 24 -42 -8 -23 -24 -14
-19 10 3 15 -1 24 -9 24 -8 0 -12 -9 -9 -21 3 -21 3 -21 -13 -1 -13 17 -15 17
-9 2 4 -12 2 -16 -6 -11 -7 5 -8 3 -3 -6 5 -9 4 -11 -3 -6 -8 5 -10 2 -6 -8 4
-10 -1 -18 -11 -22 -13 -5 -14 -9 -4 -15 10 -6 9 -13 -6 -30 -13 -15 -15 -20
-5 -15 11 6 11 4 -1 -6 -16 -13 -19 -19 -19 -39 0 -6 -6 -9 -14 -6 -10 4 -14
0 -11 -13 2 -11 0 -22 -6 -25 -5 -4 -9 -12 -9 -18 0 -7 7 -4 14 6 10 13 16 15
22 6 5 -9 10 -7 20 6 11 15 12 14 9 -11 -2 -16 -4 -31 -4 -33 -1 -2 -7 2 -15
8 -10 9 -15 8 -19 -3 -4 -9 -2 -18 3 -21 17 -10 11 -21 -17 -34 -19 -9 -29 -9
-37 -1 -8 8 -7 10 4 5 22 -8 58 19 40 30 -9 5 -11 4 -6 -3 4 -7 3 -12 -3 -12
-18 0 -23 20 -7 26 23 9 20 24 -4 19 -13 -3 -18 0 -14 7 4 6 3 8 -4 4 -6 -3
-9 -15 -7 -26 2 -12 0 -18 -4 -16 -5 3 -7 -6 -5 -19 1 -14 -1 -27 -6 -30 -4
-2 -7 6 -6 18 1 12 -3 25 -9 29 -6 5 -6 8 3 8 6 0 12 9 12 20 0 11 5 20 11 20
5 0 7 5 4 10 -3 6 0 13 8 16 8 3 14 13 12 22 -3 20 24 54 36 46 5 -3 9 0 9 5
0 6 -6 11 -12 11 -9 0 -8 4 2 10 8 5 11 10 6 10 -5 0 -1 9 9 20 10 11 14 20
10 20 -4 0 -1 8 8 18 10 10 14 22 10 27 -5 4 -2 4 6 0 11 -6 13 -4 8 9 -4 9
-3 15 1 12 4 -2 14 -1 22 5 10 6 11 9 3 9 -7 0 -13 5 -13 10 0 16 17 12 24 -6z
m75 -30 c-18 -19 -20 -26 -9 -39 8 -10 9 -15 1 -15 -6 0 -11 6 -11 13 0 6 -5
4 -11 -6 -6 -9 -16 -15 -22 -11 -7 3 -4 -1 6 -9 9 -8 17 -17 17 -21 0 -3 -8
-6 -17 -6 -11 0 -26 -17 -40 -45 -23 -47 -22 -78 3 -68 8 3 14 0 14 -7 0 -6
-5 -8 -11 -5 -6 4 -13 -2 -16 -14 -6 -25 -23 -28 -24 -3 -2 31 -4 37 -11 40
-19 6 -29 1 -22 -10 6 -9 3 -9 -9 0 -15 13 -14 16 10 38 14 13 22 24 18 24 -4
0 -2 6 4 13 6 8 8 17 4 20 -3 4 2 9 11 13 11 4 13 10 7 18 -6 7 -3 20 9 36 16
20 20 22 20 8 0 -10 -6 -18 -12 -18 -9 0 -8 -4 2 -10 13 -9 13 -10 0 -10 -13
0 -13 -2 0 -9 20 -13 34 -2 19 15 -9 11 -9 14 0 14 7 0 9 4 6 10 -3 5 0 7 9 4
8 -3 19 3 26 15 6 12 8 21 5 21 -3 0 -1 9 5 20 6 12 16 17 26 13 13 -5 12 -9
-7 -29z m-204 -284 c3 -5 1 -10 -4 -10 -6 0 -11 5 -11 10 0 6 2 10 4 10 3 0 8
-4 11 -10z m-52 -36 c-6 -16 12 -19 22 -4 7 11 45 -5 45 -19 0 -10 -19 -9 -36
2 -7 4 -14 0 -18 -8 -3 -8 -1 -17 4 -20 5 -3 6 -13 3 -22 -5 -12 -3 -14 8 -9
8 4 3 -2 -10 -13 -12 -12 -26 -19 -30 -16 -4 2 -7 -9 -6 -26 1 -16 -2 -32 -7
-35 -5 -3 -4 -12 2 -19 13 -15 6 -35 -12 -35 -6 0 -5 7 3 18 11 14 11 15 -1 5
-19 -17 -35 -17 -21 0 6 8 8 17 4 20 -3 4 -2 7 4 7 5 0 10 7 10 14 0 11 -5 12
-16 6 -9 -4 -20 -10 -26 -12 -5 -1 -9 -7 -7 -11 1 -5 -3 -5 -9 -1 -7 4 -9 3
-6 -2 3 -6 2 -16 -3 -24 -8 -12 -11 -13 -22 -2 -11 11 -10 13 2 10 10 -2 14 3
12 15 -2 9 2 17 8 17 6 0 9 4 5 9 -3 5 2 17 11 25 8 9 13 16 9 16 -3 0 -1 8 4
19 6 11 19 17 33 16 13 -1 23 -3 23 -4 0 -2 8 -4 18 -6 15 -3 16 -1 6 11 -9
11 -8 14 2 14 12 0 12 2 0 9 -7 5 -11 13 -8 18 3 5 0 10 -8 10 -10 0 -11 -5
-5 -17 13 -24 0 -34 -16 -12 -9 12 -9 21 -2 29 7 9 7 13 -3 13 -8 0 -6 5 6 13
12 9 15 19 10 28 -7 12 -6 12 7 1 9 -8 14 -20 11 -28z m-33 -58 c0 -11 -19
-15 -25 -6 -3 5 1 10 9 10 9 0 16 -2 16 -4z m50 -60 c0 -3 -4 -8 -10 -11 -5
-3 -10 -1 -10 4 0 6 5 11 10 11 6 0 10 -2 10 -4z m-74 -62 c-1 -8 -5 -17 -9
-20 -10 -10 12 -34 32 -34 13 0 13 -2 2 -9 -9 -6 -20 -2 -33 11 -15 15 -22 17
-34 8 -7 -7 -11 -16 -8 -21 3 -5 -1 -9 -9 -9 -22 0 -41 -26 -26 -36 7 -4 9 -3
6 3 -8 12 20 26 34 18 5 -3 18 -1 29 5 18 9 19 8 16 -12 -3 -13 -5 -25 -5 -27
-1 -3 -6 0 -12 6 -7 7 -22 8 -38 4 -14 -5 -32 -6 -38 -4 -18 6 -16 32 1 39 8
3 13 14 11 25 -3 16 0 19 15 14 13 -4 23 1 32 17 7 13 12 26 11 29 -1 3 4 6
11 6 8 0 13 -6 12 -13z m-6 -64 c0 -4 -9 -10 -19 -13 -17 -4 -20 6 -12 30 2 6
31 -10 31 -17z m40 -20 c0 -5 -4 -10 -10 -10 -5 0 -10 5 -10 10 0 6 5 10 10
10 6 0 10 -4 10 -10z m-540 -901 c0 -5 5 -9 11 -9 5 0 8 4 4 9 -3 5 -1 13 5
16 6 4 9 1 8 -6 -2 -6 3 -14 10 -16 7 -3 10 1 6 10 -8 23 26 15 38 -9 9 -18 9
-18 -6 0 -9 11 -16 15 -16 10 0 -6 6 -16 12 -22 10 -10 8 -12 -7 -9 -11 1 -25
6 -32 10 -6 4 -14 3 -18 -3 -4 -6 -10 -8 -15 -5 -5 3 -13 -3 -19 -12 -14 -23
-14 -8 -1 17 9 16 8 18 -5 14 -9 -4 -13 -9 -10 -12 3 -3 -2 -16 -10 -28 -11
-17 -12 -24 -2 -28 6 -3 2 -3 -10 0 -13 3 -23 1 -23 -5 0 -6 3 -10 8 -10 19 3
33 -2 27 -11 -4 -7 -13 -6 -27 1 -16 9 -19 8 -13 -2 5 -8 4 -10 -3 -5 -8 5
-10 2 -6 -8 3 -9 1 -16 -6 -16 -6 0 -9 -4 -5 -9 3 -5 0 -13 -6 -17 -8 -5 -9
-3 -4 6 5 9 4 11 -4 6 -9 -6 -9 -11 1 -24 11 -13 11 -15 -2 -8 -8 4 -7 1 3 -7
16 -14 16 -15 1 -21 -10 -4 -21 -1 -26 6 -5 9 -8 10 -8 1 0 -6 4 -15 10 -18
15 -9 50 13 44 28 -3 9 5 13 26 13 35 0 38 -8 11 -35 -13 -13 -16 -21 -8 -24
9 -3 8 -8 -2 -18 -8 -8 -11 -9 -7 -2 3 6 2 14 -4 18 -6 4 -8 11 -5 16 9 13 -2
11 -35 -6 -35 -18 -35 -51 1 -48 24 3 24 3 3 -10 -15 -8 -21 -20 -18 -39 3
-27 -17 -58 -37 -58 -5 0 -12 0 -16 0 -13 -1 -11 29 2 34 9 3 12 0 8 -10 -3
-7 0 -14 7 -14 6 0 8 5 5 10 -3 6 2 10 12 11 11 0 13 3 5 6 -6 2 -10 9 -7 14
4 5 0 6 -7 4 -9 -4 -14 3 -15 16 -2 17 1 19 10 10 6 -6 15 -11 19 -11 4 0 0 8
-9 18 -16 16 -19 16 -30 2 -9 -11 -9 -17 0 -23 8 -6 6 -7 -5 -4 -11 4 -15 0
-14 -11 3 -19 -22 -48 -32 -37 -4 4 -1 10 6 12 6 3 12 13 12 23 0 10 5 22 10
25 6 4 8 10 5 15 -3 5 3 13 12 19 10 6 14 11 9 11 -5 0 -1 9 9 20 11 13 14 20
6 20 -8 0 -6 6 4 17 10 9 22 29 27 45 6 15 14 28 20 28 5 0 7 4 3 9 -3 5 -1
12 5 16 6 4 7 11 4 17 -4 7 -2 8 4 4 10 -6 17 6 10 17 -1 1 4 12 10 24 8 15
18 20 30 16 14 -5 15 -3 5 8 -20 20 -15 31 8 24 14 -5 19 -4 15 4 -5 7 -1 9 8
5 9 -3 16 -10 16 -15z m140 7 c0 5 31 9 69 9 38 1 67 -3 65 -7 -7 -11 8 -10
25 1 9 6 22 6 32 1 9 -5 19 -6 23 -3 3 4 24 7 45 8 31 1 38 -2 34 -13 -5 -12
-2 -12 18 1 24 16 63 7 46 -10 -5 -4 -12 -2 -16 5 -6 9 -12 8 -25 -7 -12 -13
-14 -21 -6 -26 6 -3 9 -1 8 6 -2 6 3 14 11 17 8 3 11 0 7 -7 -4 -6 -1 -9 6 -8
7 2 10 2 5 0 -4 -3 -5 -8 -3 -11 2 -4 -7 -8 -20 -8 -15 -1 -25 5 -29 17 -4 11
-11 17 -16 14 -5 -3 -6 1 -3 9 3 9 1 16 -6 16 -6 0 -9 -4 -6 -9 3 -5 -8 -7
-24 -6 -16 1 -27 -1 -24 -6 3 -5 10 -7 15 -4 5 4 9 2 9 -4 0 -5 -3 -11 -7 -14
-5 -2 -3 -2 4 -1 6 2 14 -2 17 -9 3 -7 3 -2 0 11 -5 21 -4 22 15 10 19 -11 19
-14 4 -30 -9 -10 -19 -14 -22 -10 -12 19 -48 23 -61 7 -11 -13 -15 -13 -21 -3
-6 9 -11 10 -19 2 -15 -15 -65 29 -54 48 4 7 4 10 -1 6 -4 -4 -14 -3 -20 2 -9
8 -14 6 -19 -6 -5 -13 -9 -14 -20 -5 -11 9 -17 8 -28 -8 -8 -12 -18 -18 -21
-14 -4 3 0 11 9 17 13 10 13 12 -5 12 -11 0 -17 -4 -15 -8 3 -5 -2 -11 -11
-14 -9 -4 -14 -13 -11 -20 3 -7 1 -16 -3 -19 -16 -9 -20 23 -5 36 8 6 12 14
10 16 -3 3 1 11 7 18 8 9 16 10 25 3 6 -6 12 -7 12 -2z m493 1 c-3 -4 1 -14 7
-22 15 -18 -1 -20 -18 -3 -8 8 -10 5 -6 -15 2 -16 0 -27 -6 -27 -6 0 -10 8 -9
18 4 41 0 46 -21 27 -14 -13 -20 -14 -20 -5 0 7 -3 10 -6 7 -8 -8 -46 12 -40
21 2 4 31 7 64 7 33 0 58 -4 55 -8z m70 -7 c-3 -10 0 -9 10 3 12 15 20 16 35
8 11 -6 22 -8 25 -5 9 9 106 10 100 1 -2 -4 1 -14 7 -22 10 -11 10 -15 1 -15
-7 0 -9 -4 -6 -10 3 -5 1 -10 -5 -10 -6 0 -10 8 -8 18 2 9 -3 16 -9 15 -7 -2
-13 2 -13 9 0 6 -3 8 -7 5 -3 -4 -12 -2 -20 4 -10 9 -13 8 -13 0 0 -7 -4 -10
-9 -6 -5 3 -12 1 -15 -4 -4 -5 -1 -13 5 -17 6 -3 15 -1 19 6 5 9 13 9 27 1 11
-5 23 -8 27 -6 3 3 3 2 0 -2 -3 -4 -17 -9 -32 -10 -15 -1 -36 -3 -47 -5 -14
-2 -19 2 -17 13 1 9 -5 23 -15 30 -14 12 -16 12 -8 0 6 -10 4 -12 -5 -6 -9 6
-11 4 -5 -5 6 -9 4 -11 -5 -5 -9 5 -11 4 -6 -4 4 -6 12 -9 17 -6 5 4 9 2 9 -4
0 -21 -19 -20 -34 1 -15 21 -16 21 -23 2 -13 -36 -29 -45 -46 -26 -15 16 -15
18 3 18 10 0 16 -5 13 -10 -4 -5 -1 -6 6 -2 9 6 8 13 -5 27 -11 12 -13 19 -5
19 7 0 10 4 7 8 -2 4 8 8 23 7 21 0 27 -4 24 -15z m529 2 c-4 -12 0 -11 19 1
24 16 63 7 45 -10 -5 -4 -11 -2 -13 5 -4 10 -11 8 -29 -9 -13 -12 -24 -18 -24
-12 0 5 -7 10 -16 10 -15 0 -14 -2 1 -14 10 -7 16 -16 12 -19 -10 -10 -39 17
-33 31 6 18 -73 13 -84 -5 -5 -8 -10 -19 -9 -25 0 -5 5 0 12 13 7 12 16 20 20
16 3 -4 2 -15 -4 -26 -6 -11 -8 -23 -4 -26 3 -3 8 4 12 16 6 26 16 28 34 5 12
-15 12 -16 -3 -11 -10 4 -19 1 -22 -8 -8 -20 -29 -17 -44 6 -6 11 -18 17 -25
14 -14 -5 -44 22 -34 32 3 3 15 0 27 -6 18 -9 24 -9 30 1 5 7 6 17 4 23 -3 7
19 11 65 11 55 1 68 -2 63 -13z m160 0 c-4 -12 -1 -12 19 1 24 16 63 7 46 -10
-5 -4 -12 -2 -16 5 -6 9 -12 8 -25 -7 -12 -13 -14 -21 -6 -26 6 -3 9 -1 8 6
-2 6 3 14 11 17 8 3 11 0 7 -7 -4 -6 -1 -9 6 -8 7 2 10 2 5 0 -4 -3 -5 -8 -3
-11 2 -4 -7 -8 -20 -8 -15 -1 -25 5 -29 17 -4 11 -11 17 -16 14 -5 -3 -6 1 -3
9 3 9 1 16 -6 16 -6 0 -9 -4 -6 -8 3 -5 -7 -8 -22 -6 -34 3 -34 3 -29 12 3 4
23 7 45 8 31 0 39 -3 34 -14z m184 5 c4 -3 15 -2 25 4 14 7 25 5 43 -6 18 -12
26 -13 32 -4 4 7 3 9 -4 5 -6 -3 -13 -2 -16 3 -3 5 9 7 27 4 32 -4 49 -4 97 0
14 1 30 -1 37 -6 6 -4 14 -3 18 3 10 15 22 12 27 -8 4 -14 15 -17 51 -16 49 1
57 -5 32 -26 -13 -10 -19 -10 -34 4 -15 13 -24 15 -38 7 -11 -5 -25 -6 -33 -1
-10 6 -21 3 -32 -7 -13 -12 -21 -13 -31 -4 -8 6 -16 8 -19 5 -3 -3 -5 3 -4 13
1 19 -5 20 -38 7 -13 -5 -17 -4 -12 4 3 6 1 14 -5 18 -8 4 -9 3 -5 -4 4 -7 1
-12 -6 -13 -7 0 -3 -5 10 -11 12 -6 22 -15 22 -20 0 -12 -18 -10 -22 4 -6 17
-50 18 -70 1 -12 -11 -18 -11 -24 -2 -4 7 -3 10 3 6 6 -4 14 0 17 8 3 9 -1 18
-8 21 -17 7 -68 -25 -60 -37 12 -20 -16 -7 -30 13 -9 12 -16 19 -16 15 0 -4
-9 -3 -20 3 -11 6 -19 14 -16 18 5 9 94 8 102 -1z m-1356 -27 c0 -5 -4 -10
-10 -10 -5 0 -10 5 -10 10 0 6 5 10 10 10 6 0 10 -4 10 -10z m960 -2 c0 -11
-12 -10 -30 2 -12 7 -10 9 8 7 12 0 22 -5 22 -9z m160 1 c0 -4 -3 -9 -7 -12
-5 -2 -3 -2 4 -1 6 2 14 -2 17 -9 3 -7 3 -2 0 11 -5 21 -4 22 15 10 19 -11 19
-14 4 -30 -9 -10 -19 -14 -22 -10 -12 19 -48 23 -61 7 -10 -12 -15 -13 -21 -4
-6 10 -11 10 -23 0 -20 -17 -21 -2 -2 25 11 15 25 21 55 20 23 0 41 -3 41 -7z
m704 0 c-2 -4 2 -9 8 -12 7 -2 10 -8 6 -12 -4 -4 -19 2 -34 14 l-27 21 26 -2
c14 -1 24 -5 21 -9z m-1994 -13 c0 5 4 3 9 -4 12 -19 1 -66 -12 -53 -7 7 -6
15 3 26 8 10 9 15 1 15 -6 0 -11 -6 -11 -12 0 -7 -5 -5 -11 5 -6 9 -14 15 -19
12 -5 -3 -12 0 -16 6 -4 7 -3 9 4 5 6 -3 14 -2 17 4 5 8 11 7 21 -1 8 -6 14
-8 14 -3z m101 -5 c5 8 9 11 9 7 0 -3 3 -14 7 -24 4 -12 3 -15 -6 -10 -6 4
-18 3 -26 -4 -11 -9 -16 -7 -24 8 -13 24 -3 36 16 20 11 -9 17 -9 24 3z m-124
-36 c18 -29 16 -37 -7 -23 -14 9 -16 15 -7 21 7 5 2 6 -12 2 -16 -5 -21 -4
-17 4 5 7 1 9 -8 5 -9 -3 -16 -2 -16 4 0 18 55 8 67 -13z m523 10 c14 -16 10
-18 -14 -9 -9 3 -16 10 -16 15 0 14 16 11 30 -6z m950 5 c0 -5 -4 -10 -10 -10
-5 0 -10 5 -10 10 0 6 5 10 10 10 6 0 10 -4 10 -10z m-1491 -41 c19 -11 30
-24 25 -27 -5 -4 -19 -19 -31 -34 -18 -24 -22 -26 -33 -13 -7 9 -10 19 -6 22
4 4 10 2 14 -4 5 -8 10 -8 17 1 14 16 13 49 -3 52 -7 1 -8 0 -2 -3 5 -2 10 -9
10 -15 0 -6 -7 -5 -16 3 -13 10 -17 10 -25 -2 -6 -10 -9 -11 -9 -1 0 7 7 15
16 19 13 5 13 7 2 14 -29 19 9 7 41 -12z m-65 -25 c5 -12 10 -14 20 -5 13 11
26 5 26 -11 0 -5 -4 -7 -9 -4 -14 9 -42 -5 -34 -17 3 -6 1 -7 -6 -3 -6 4 -9
11 -6 16 3 5 1 12 -5 15 -6 4 -10 3 -9 -2 3 -20 -2 -30 -17 -30 -14 0 -15 2
-2 11 15 11 18 17 18 36 0 16 17 12 24 -6z m-147 -241 c-11 -10 13 -32 29 -26
8 3 14 2 13 -3 -4 -21 2 -35 11 -29 20 12 9 -12 -15 -35 -14 -13 -25 -19 -25
-14 0 5 -5 2 -11 -6 -9 -13 -10 -12 -5 3 3 11 2 16 -4 12 -12 -7 -12 -3 -3 20
5 15 7 15 17 -4 11 -20 12 -20 23 -2 8 12 8 22 1 32 -8 11 -9 11 -4 -3 8 -25
-8 -30 -22 -7 -8 12 -9 19 -1 19 5 0 8 4 4 9 -8 14 -44 9 -50 -6 -3 -11 0 -11
16 -2 21 11 21 11 3 -14 -11 -14 -30 -31 -42 -37 -15 -6 -22 -16 -18 -25 3 -8
1 -17 -5 -20 -5 -4 -6 -12 -2 -18 4 -7 9 -21 10 -32 2 -15 -1 -13 -13 8 -8 15
-12 32 -9 37 3 6 1 10 -5 10 -6 0 -2 10 10 22 19 21 24 33 21 51 -1 5 3 6 9 2
6 -3 7 -11 4 -17 -4 -7 -2 -8 4 -4 9 5 9 13 1 28 -9 16 -8 19 2 13 9 -6 11 -3
6 9 -4 9 -3 15 2 12 4 -3 17 1 27 9 20 15 32 20 21 8z m-17 -73 c-6 -11 -8
-25 -5 -31 4 -5 1 -16 -5 -24 -7 -8 -9 -15 -4 -15 5 0 2 -6 -6 -13 -8 -7 -16
-23 -18 -35 -3 -20 0 -23 20 -18 13 3 17 3 10 0 -6 -3 -9 -10 -6 -16 7 -11
-31 -50 -40 -41 -3 3 2 12 12 20 15 11 15 14 2 26 -8 6 -15 21 -14 32 0 11 -4
25 -8 32 -5 6 -5 14 1 17 6 4 8 13 4 21 -3 8 0 15 6 15 6 0 14 0 19 1 4 0 13
11 20 25 7 13 15 24 18 24 2 0 0 -9 -6 -20z m-85 -118 c-2 -3 2 -10 11 -17 14
-10 14 -12 -2 -26 -16 -12 -17 -12 -11 3 3 10 2 20 -4 23 -5 4 -6 11 -3 17 4
6 2 8 -4 4 -6 -3 -9 -18 -6 -31 5 -27 -2 -31 -26 -15 -10 6 -11 10 -2 10 6 0
11 3 10 8 -1 4 2 17 6 30 6 19 10 21 22 11 8 -6 12 -14 9 -17z m45 -38 c0 -4
-7 -12 -16 -19 -15 -10 -14 -14 10 -37 l28 -25 -32 -26 c-17 -15 -37 -27 -43
-27 -7 0 -4 5 6 11 12 7 16 17 12 30 -4 11 -2 19 4 19 6 0 11 -8 11 -17 0 -15
2 -16 10 -3 6 11 4 18 -9 25 -10 5 -16 16 -13 24 3 8 -1 12 -9 9 -8 -3 -14
-11 -14 -18 0 -7 -5 -15 -11 -17 -7 -2 -11 6 -10 19 0 13 -4 23 -11 23 -6 0
-15 3 -19 8 -4 4 0 7 9 7 9 0 19 -4 22 -10 3 -5 11 -10 16 -10 6 0 7 5 3 12
-4 6 -3 8 3 5 6 -4 16 0 23 8 13 15 30 20 30 9z m-83 -54 c0 -41 2 -44 21 -27
16 14 17 14 18 -9 2 -22 -1 -24 -27 -20 -38 6 -48 -12 -18 -34 18 -15 21 -21
11 -32 -6 -8 -9 -18 -5 -21 3 -4 -2 -16 -12 -27 -22 -25 -29 -66 -8 -49 20 17
16 -5 -5 -24 -13 -12 -21 -14 -29 -6 -7 7 -18 6 -37 -2 -22 -11 -26 -17 -22
-48 2 -19 9 -37 15 -39 13 -4 -14 -48 -35 -56 -9 -3 -12 -1 -9 4 3 6 1 10 -5
10 -5 0 -20 -15 -31 -32 -12 -18 -18 -25 -15 -15 3 11 0 20 -9 23 -15 6 -21
25 -7 23 4 -1 13 -1 20 0 15 1 6 21 -9 21 -6 0 -7 -5 -4 -10 4 -6 1 -9 -7 -8
-14 3 -15 -14 -3 -47 5 -14 4 -16 -3 -6 -6 8 -12 9 -16 3 -3 -5 1 -12 9 -16 8
-3 12 -12 9 -21 -6 -16 -19 -12 -19 6 0 17 -20 11 -34 -11 -8 -12 -10 -20 -5
-19 21 4 35 -2 29 -11 -4 -6 -11 -8 -16 -4 -6 3 -16 -2 -23 -11 -12 -16 -13
-16 -19 -2 -4 10 -2 16 5 14 5 -1 12 6 14 16 2 9 5 23 7 31 2 8 8 20 15 28 6
8 9 18 5 21 -3 4 -1 7 5 7 7 0 12 7 12 15 0 8 4 15 10 15 5 0 7 7 4 15 -4 8 1
17 10 21 9 3 16 14 16 25 0 10 10 23 21 30 17 9 19 13 8 20 -9 5 -10 9 -2 9 6
0 14 14 18 31 5 20 11 29 21 25 8 -3 14 -1 14 4 0 6 -6 10 -12 11 -10 0 -10 2
0 6 6 2 10 8 7 13 -3 5 1 14 8 22 12 12 26 39 32 61 2 4 4 10 5 15 1 4 2 11 1
15 -1 5 4 5 11 1 20 -13 39 -13 32 -2 -5 7 -2 8 5 3 10 -6 11 -3 2 13 -16 31
-13 51 8 49 10 0 18 -8 18 -17z m-44 -41 c-9 -9 -12 -7 -10 9 1 14 5 18 11 12
7 -7 6 -14 -1 -21z m-108 -389 c3 -5 13 -7 23 -4 15 5 15 5 -1 -6 -9 -6 -21
-8 -27 -5 -11 7 -44 -41 -46 -67 -2 -31 -4 -32 -20 -12 -8 10 -13 14 -10 7 4
-6 2 -14 -4 -18 -6 -4 -8 -10 -5 -15 3 -4 -2 -11 -10 -14 -12 -4 -13 -2 -6 13
7 13 6 18 -4 18 -7 0 -11 -6 -8 -12 3 -8 -5 -11 -21 -10 -14 2 -29 -2 -33 -7
-3 -6 -2 -8 3 -5 6 3 11 -3 11 -14 1 -10 -7 -24 -18 -30 -11 -6 -18 -16 -16
-22 2 -7 -4 -24 -14 -38 -10 -14 -15 -30 -11 -34 4 -5 1 -5 -6 -1 -7 4 -12 4
-11 -1 2 -16 -13 -53 -23 -53 -5 0 -7 -4 -4 -9 3 -4 -1 -16 -8 -27 -8 -10 -11
-25 -8 -33 3 -9 1 -12 -6 -7 -6 3 -14 1 -18 -5 -4 -8 -3 -9 4 -5 7 4 12 2 12
-3 0 -6 -5 -11 -11 -11 -6 0 -8 -7 -5 -15 3 -8 9 -23 13 -32 5 -13 3 -15 -12
-9 -11 4 -25 0 -36 -10 -10 -9 -24 -14 -31 -11 -9 4 -7 6 4 6 11 1 15 6 12 16
-4 8 1 17 10 21 9 3 14 10 11 14 -3 5 -1 11 5 15 6 4 8 10 5 15 -3 4 2 11 11
14 8 3 12 10 9 16 -3 5 -1 10 5 10 6 0 8 5 4 12 -5 7 -3 8 5 4 8 -5 11 -3 10
5 -4 20 11 59 22 59 5 0 9 9 9 20 0 11 5 20 12 20 6 0 9 3 5 6 -7 7 32 84 43
84 4 0 7 8 7 18 0 35 3 42 22 42 10 0 24 7 31 15 7 8 16 13 20 10 5 -3 12 0
15 6 4 5 13 8 21 5 8 -3 11 0 7 10 -3 7 0 14 5 14 6 0 9 9 7 19 -3 14 1 18 11
14 8 -3 14 1 14 11 0 18 15 22 25 6z m-88 -27 c-4 -3 -2 -12 5 -20 8 -11 7
-12 -6 -7 -9 3 -16 9 -16 13 0 9 11 21 18 21 3 0 2 -3 -1 -7z m-33 -118 c3 -8
-2 -18 -11 -23 -11 -6 -12 -11 -4 -16 6 -4 11 -2 11 3 0 6 6 10 13 9 6 -2 11
5 9 15 -2 9 2 17 7 17 5 0 9 -13 9 -30 -1 -16 -5 -27 -10 -24 -4 3 -8 -1 -8
-8 0 -10 -2 -10 -9 0 -4 8 -12 14 -16 14 -19 0 -24 -28 -7 -40 9 -7 15 -16 12
-20 -13 -20 -62 -62 -72 -62 -6 0 -8 3 -5 6 3 4 2 15 -4 25 -7 15 -6 21 6 25
8 3 13 10 10 14 -3 5 -1 11 5 15 6 4 8 11 4 16 -3 6 4 17 16 26 12 8 19 21 16
28 -5 13 2 25 15 25 4 0 9 -7 13 -15z m-87 -151 c-3 -4 -2 -15 4 -26 7 -13 7
-23 0 -32 -6 -7 -7 -17 -3 -21 4 -5 1 -5 -6 -1 -9 6 -12 2 -10 -10 2 -11 -2
-18 -8 -17 -6 1 -12 -9 -13 -22 -3 -48 -4 -54 -13 -49 -4 3 -8 -1 -8 -8 -1 -7
-7 -2 -15 12 -11 20 -11 27 -2 35 7 6 13 19 13 30 1 26 45 115 58 115 5 0 6
-3 3 -6z m48 -24 c-4 -6 -11 -7 -17 -4 -7 4 -8 2 -4 -5 4 -6 12 -9 17 -6 5 4
9 2 9 -4 0 -5 -4 -12 -9 -16 -12 -7 -33 29 -24 39 10 10 35 7 28 -4z"/>
<path d="M2890 3839 c0 -5 -6 -7 -12 -3 -7 4 -6 -1 3 -11 12 -12 22 -14 33 -8
14 7 13 10 -4 21 -13 8 -20 9 -20 1z"/>
<path d="M2833 3815 c0 -8 4 -12 9 -9 5 3 6 10 3 15 -9 13 -12 11 -12 -6z"/>
<path d="M2810 3775 c-7 -8 -9 -15 -4 -15 5 0 3 -4 -5 -9 -8 -5 -16 -16 -17
-25 -2 -14 1 -14 28 0 24 12 28 18 17 25 -13 8 -5 13 15 10 5 -1 4 5 -4 13
-15 19 -15 19 -30 1z m5 -35 c-3 -5 -12 -10 -18 -10 -7 0 -6 4 3 10 19 12 23
12 15 0z"/>
<path d="M2717 3518 c-15 -12 -14 -13 10 -14 16 -1 22 1 15 3 -6 3 -10 9 -6
14 7 12 1 11 -19 -3z"/>
<path d="M2652 3535 c4 -4 -2 -21 -13 -36 -11 -16 -17 -29 -12 -29 4 0 16 13
25 30 12 22 14 31 5 36 -7 4 -9 4 -5 -1z"/>
<path d="M2550 3240 c0 -5 5 -10 11 -10 5 0 7 5 4 10 -3 6 -8 10 -11 10 -2 0
-4 -4 -4 -10z"/>
<path d="M2590 3360 c0 -5 5 -10 11 -10 5 0 7 5 4 10 -3 6 -8 10 -11 10 -2 0
-4 -4 -4 -10z"/>
<path d="M2547 3323 c-3 -3 -3 -12 0 -21 4 -10 2 -13 -5 -8 -6 3 -14 1 -18 -5
-4 -8 -3 -9 4 -5 13 8 16 -5 5 -20 -5 -5 -1 -1 9 8 19 20 43 24 32 6 -4 -7 -3
-9 1 -5 16 14 13 33 -5 45 -10 6 -20 8 -23 5z"/>
<path d="M2459 3154 c-16 -20 7 -25 25 -5 14 15 14 18 1 18 -8 0 -20 -6 -26
-13z"/>
<path d="M2379 3008 c0 -2 -2 -11 -4 -21 -3 -15 -1 -16 11 -6 7 6 11 15 8 20
-5 9 -13 12 -15 7z"/>
<path d="M2341 2936 c-10 -11 -9 -14 1 -12 14 2 23 15 15 22 -2 2 -10 -2 -16
-10z"/>
<path d="M2320 2880 c-9 -6 -10 -10 -3 -10 6 0 15 5 18 10 8 12 4 12 -15 0z"/>
<path d="M2422 2981 c-11 -7 -10 -9 3 -14 9 -4 14 -3 10 2 -3 5 1 12 7 14 7 3
9 6 3 6 -5 0 -16 -3 -23 -8z"/>
<path d="M2405 2926 c-21 -17 -25 -24 -12 -22 10 1 24 12 33 24 19 28 16 28
-21 -2z"/>
<path d="M2230 2670 c0 -5 5 -10 10 -10 6 0 10 5 10 10 0 6 -4 10 -10 10 -5 0
-10 -4 -10 -10z"/>
<path d="M2209 2663 c-1 -5 -1 -12 0 -17 1 -4 -6 -15 -16 -23 -16 -13 -15 -13
7 -2 14 7 26 12 28 11 7 -5 22 -1 22 6 0 10 -40 34 -41 25z m19 -28 c-3 -3 -9
2 -12 12 -6 14 -5 15 5 6 7 -7 10 -15 7 -18z"/>
<path d="M1644 1562 c3 -5 0 -13 -6 -15 -9 -4 -10 -6 -1 -6 17 -1 25 16 12 25
-7 4 -9 3 -5 -4z"/>
<path d="M1635 1400 c3 -5 8 -10 11 -10 2 0 4 5 4 10 0 6 -5 10 -11 10 -5 0
-7 -4 -4 -10z"/>
<path d="M1553 1383 c4 -6 0 -16 -8 -23 -11 -9 -12 -16 -2 -31 6 -10 16 -19
21 -19 4 0 4 6 -1 13 -11 14 -11 27 0 44 4 6 2 15 -4 19 -7 4 -9 3 -6 -3z"/>
<path d="M1954 1596 c2 -17 36 -51 36 -37 0 6 6 10 13 9 6 -2 11 3 9 11 -2 9
3 11 13 7 9 -3 19 -6 23 -6 3 0 -3 -7 -14 -16 -18 -15 -18 -15 3 -4 14 6 20
16 17 25 -4 8 -10 12 -15 9 -5 -3 -9 0 -9 7 0 8 -7 6 -19 -5 -17 -15 -20 -15
-34 -1 -19 19 -26 19 -23 1z"/>
<path d="M2270 1600 c0 -5 5 -10 11 -10 5 0 7 5 4 10 -3 6 -8 10 -11 10 -2 0
-4 -4 -4 -10z"/>
<path d="M2376 1601 c-4 -5 -2 -12 3 -15 5 -4 12 -2 15 3 4 5 2 12 -3 15 -5 4
-12 2 -15 -3z"/>
<path d="M2915 1600 c3 -5 8 -10 11 -10 2 0 4 5 4 10 0 6 -5 10 -11 10 -5 0
-7 -4 -4 -10z"/>
<path d="M3230 1601 c0 -6 5 -11 11 -11 5 0 7 -5 4 -10 -4 -6 4 -5 19 1 14 7
23 16 19 22 -3 5 -9 4 -13 -4 -7 -10 -11 -10 -24 0 -11 9 -16 10 -16 2z"/>
<path d="M3470 1601 c0 -6 5 -11 11 -11 5 0 8 -4 4 -9 -3 -5 0 -13 6 -17 8 -5
9 -3 4 6 -6 10 -4 12 9 7 10 -4 15 -3 11 3 -3 6 -1 10 5 10 6 0 8 5 4 11 -4 8
-9 7 -14 -2 -7 -10 -11 -10 -24 0 -11 9 -16 10 -16 2z"/>
<path d="M3546 1601 c-3 -5 2 -15 12 -22 15 -12 16 -12 5 2 -7 9 -10 19 -6 22
3 4 4 7 0 7 -3 0 -8 -4 -11 -9z"/>
<path d="M2983 1563 c0 -8 6 -9 19 -2 10 5 18 11 18 12 0 2 -8 3 -18 3 -10 0
-19 -6 -19 -13z"/>
<path d="M1454 1120 c2 -16 20 -14 24 2 3 10 2 10 -6 -1 -7 -9 -11 -10 -15 -2
-4 7 -5 8 -3 1z"/>
<path d="M1435 1090 c-8 -13 9 -20 24 -11 10 6 9 10 -3 14 -8 3 -18 2 -21 -3z"/>
<path d="M1345 939 c3 -13 10 -27 16 -33 9 -8 9 -6 1 10 -6 12 -9 24 -6 27 3
3 1 8 -5 11 -6 4 -8 -2 -6 -15z"/>
<path d="M1299 886 c-1 -3 -2 -9 -3 -13 -1 -5 -5 -14 -9 -20 -5 -7 -5 -13 -1
-13 4 0 -3 -12 -17 -26 -25 -26 -25 -30 -7 -51 10 -12 0 -18 -24 -14 -5 0 -9
-3 -9 -9 -3 -20 -4 -25 -12 -37 -5 -7 -5 -13 -1 -13 4 0 -2 -10 -14 -23 -12
-13 -19 -26 -16 -30 3 -3 -3 -12 -15 -19 -12 -7 -21 -17 -21 -22 0 -6 5 -5 12
2 17 17 41 -17 25 -38 -6 -8 -2 -7 10 4 12 10 21 23 20 29 -1 6 7 12 18 14 16
3 17 2 5 -6 -9 -7 -10 -11 -3 -11 18 0 26 19 10 26 -16 6 -19 34 -3 34 6 0 6
4 -2 8 -10 7 -8 14 7 34 11 14 17 28 14 32 -3 3 1 6 11 6 10 0 14 -5 10 -12
-5 -7 -3 -8 6 -3 10 6 10 11 -3 20 -9 7 -14 15 -10 18 9 9 33 -12 33 -29 0 -8
4 -14 8 -14 5 0 9 7 9 15 0 8 -3 15 -7 15 -4 0 -7 7 -7 15 0 8 6 15 13 15 13
0 29 29 24 45 -1 6 -3 18 -4 29 -1 17 -44 56 -47 42z m32 -27 c1 -5 2 -17 2
-26 1 -10 5 -21 10 -24 6 -4 -2 -15 -17 -24 -14 -10 -23 -22 -19 -29 5 -8 3
-8 -8 1 -8 6 -18 12 -24 12 -16 2 -12 25 7 44 10 10 16 22 13 27 -3 5 -1 11 5
15 6 4 8 11 5 16 -3 5 1 6 9 3 9 -3 17 -10 17 -15z m-75 -131 c-3 -21 -16 -38
-29 -38 -7 0 -3 7 7 15 14 11 16 15 5 15 -12 0 -12 2 1 10 19 12 19 12 16 -2z
m-30 -73 c0 -14 -4 -25 -9 -25 -4 0 -6 -4 -2 -9 3 -5 1 -12 -5 -16 -6 -4 -8
-12 -4 -18 3 -7 -2 -3 -11 8 -14 18 -14 21 2 32 9 7 12 13 5 13 -7 0 -5 8 5
20 10 11 18 20 18 20 1 0 1 -11 1 -25z"/>
<path d="M1306 852 c-3 -5 1 -9 9 -9 8 0 12 4 9 9 -3 4 -7 8 -9 8 -2 0 -6 -4
-9 -8z"/>
<path d="M1294 812 c-17 -14 -18 -20 -8 -30 8 -7 15 -8 19 -2 3 6 1 10 -5 10
-6 0 -8 5 -5 10 5 8 11 7 21 -1 10 -8 14 -8 14 0 0 6 -6 11 -12 11 -9 0 -8 4
2 10 8 5 11 10 5 10 -5 -1 -19 -9 -31 -18z"/>
<path d="M1116 522 l-19 -27 24 22 c12 12 21 24 18 27 -2 2 -13 -8 -23 -22z"/>
<path d="M895 70 c3 -6 -1 -13 -9 -16 -9 -3 -16 -11 -16 -16 0 -6 6 -5 15 2 8
6 19 9 26 5 8 -6 8 -2 0 14 -7 11 -14 21 -17 21 -3 0 -2 -5 1 -10z"/>
<path d="M1055 329 c-4 -6 -5 -12 -2 -15 2 -3 7 2 10 11 7 17 1 20 -8 4z"/>
<path d="M1039 297 c-7 -17 -5 -67 2 -67 6 0 7 5 4 10 -3 6 1 13 9 16 20 8 21
30 1 38 -8 3 -15 4 -16 3z m16 -16 c3 -5 2 -12 -3 -15 -5 -3 -9 1 -9 9 0 17 3
19 12 6z"/>
<path d="M986 193 c-8 -25 -7 -33 1 -30 5 1 6 8 5 16 -2 7 1 10 7 6 7 -3 8 0
5 9 -8 20 -11 20 -18 -1z"/>
<path d="M955 140 c-3 -5 -5 -10 -3 -11 33 -8 38 -7 27 7 -14 17 -16 17 -24 4z"/>
<path d="M951 103 c4 -21 -2 -34 -13 -27 -7 4 -8 3 -4 -4 10 -16 14 -15 26 7
7 14 7 22 0 26 -6 4 -10 3 -9 -2z"/>
<path d="M4527 4999 c7 -7 15 -10 18 -7 3 3 -2 9 -12 12 -14 6 -15 5 -6 -5z"/>
<path d="M4555 4979 c-4 -6 -5 -12 -2 -15 2 -3 7 2 10 11 7 17 1 20 -8 4z"/>
<path d="M4546 4938 c3 -4 11 -5 19 -1 21 7 19 12 -4 10 -11 0 -18 -5 -15 -9z"/>
<path d="M4610 4940 c0 -5 5 -10 11 -10 5 0 7 5 4 10 -3 6 -8 10 -11 10 -2 0
-4 -4 -4 -10z"/>
<path d="M4565 4920 c-3 -6 1 -7 9 -4 18 7 21 14 7 14 -6 0 -13 -4 -16 -10z"/>
<path d="M4575 4900 c-7 -11 22 -26 32 -16 4 3 -1 6 -11 6 -9 0 -14 5 -11 10
3 6 4 10 1 10 -3 0 -8 -5 -11 -10z"/>
<path d="M4586 4858 c3 -4 11 -5 19 -1 21 7 19 12 -4 10 -11 0 -18 -5 -15 -9z"/>
<path d="M4634 4862 c4 -3 14 -7 22 -8 9 -1 13 0 10 4 -4 3 -14 7 -22 8 -9 1
-13 0 -10 -4z"/>
<path d="M4605 4840 c-3 -6 1 -7 9 -4 18 7 21 14 7 14 -6 0 -13 -4 -16 -10z"/>
<path d="M4680 4840 c-9 -6 -10 -10 -3 -10 6 0 15 5 18 10 8 12 4 12 -15 0z"/>
<path d="M4615 4820 c-3 -5 -1 -10 4 -10 6 0 11 5 11 10 0 6 -2 10 -4 10 -3 0
-8 -4 -11 -10z"/>
<path d="M4632 4788 c2 -6 10 -13 16 -14 7 -1 8 0 2 3 -5 2 -8 9 -4 14 3 5 0
9 -6 9 -7 0 -10 -5 -8 -12z"/>
<path d="M4686 4778 c3 -5 10 -6 15 -3 13 9 11 12 -6 12 -8 0 -12 -4 -9 -9z"/>
<path d="M2656 4762 c-3 -5 1 -9 9 -9 8 0 12 4 9 9 -3 4 -7 8 -9 8 -2 0 -6 -4
-9 -8z"/>
<path d="M4660 4760 c-9 -6 -10 -10 -3 -10 6 0 15 5 18 10 8 12 4 12 -15 0z"/>
<path d="M4701 4716 c-9 -11 -9 -16 0 -22 7 -4 9 -3 5 4 -3 6 2 15 11 21 10 6
13 11 7 11 -6 0 -17 -6 -23 -14z"/>
<path d="M2716 4698 c3 -5 10 -6 15 -3 13 9 11 12 -6 12 -8 0 -12 -4 -9 -9z"/>
<path d="M2710 4676 c14 -18 13 -19 -5 -12 -16 6 -18 5 -7 -5 8 -9 15 -10 22
-3 8 8 5 15 -7 25 -17 13 -17 13 -3 -5z"/>
<path d="M4734 4643 c1 -12 6 -26 10 -30 4 -5 6 -1 4 7 -2 8 3 14 10 12 8 -1
11 2 7 8 -3 6 -10 8 -15 5 -4 -3 -11 1 -14 7 -2 7 -4 3 -2 -9z"/>
<path d="M2695 4621 c-3 -5 0 -13 6 -17 7 -4 9 -3 5 4 -3 6 3 12 16 15 23 4
23 4 1 6 -12 0 -24 -3 -28 -8z"/>
<path d="M2731 4598 c-1 -21 15 -32 25 -17 4 7 3 9 -4 5 -6 -3 -13 2 -15 11
-4 16 -5 16 -6 1z"/>
<path d="M4727 4577 c4 -6 8 -15 8 -19 0 -16 11 -15 12 2 1 10 -5 21 -13 24
-10 4 -13 2 -7 -7z"/>
<path d="M4786 4582 c-3 -5 1 -9 9 -9 8 0 12 4 9 9 -3 4 -7 8 -9 8 -2 0 -6 -4
-9 -8z"/>
<path d="M2759 4553 c-12 -16 -12 -17 2 -6 9 7 20 9 24 5 5 -4 5 -1 1 6 -9 16
-11 15 -27 -5z"/>
<path d="M4756 4518 c3 -5 10 -6 15 -3 13 9 11 12 -6 12 -8 0 -12 -4 -9 -9z"/>
<path d="M4795 4522 c3 -3 -3 -10 -12 -17 -13 -9 -13 -14 -3 -20 9 -6 11 -4 5
5 -6 10 -4 12 11 6 10 -4 15 -4 11 0 -4 4 -2 12 3 19 7 8 5 12 -5 12 -8 0 -13
-3 -10 -5z"/>
<path d="M2777 4476 c-15 -12 -16 -16 -4 -23 8 -4 17 -15 20 -23 4 -12 6 -12
6 2 1 9 -4 20 -9 23 -8 5 -7 11 1 21 14 18 9 17 -14 0z"/>
<path d="M4826 4457 c3 -10 9 -15 12 -12 3 3 0 11 -7 18 -10 9 -11 8 -5 -6z"/>
<path d="M2830 4423 c0 -5 5 -15 10 -23 7 -12 9 -10 7 8 -1 19 -17 33 -17 15z"/>
<path d="M4836 4413 c-6 -14 -5 -15 5 -6 7 7 10 15 7 18 -3 3 -9 -2 -12 -12z"/>
<path d="M4873 4390 c1 -21 10 -18 13 5 1 8 -2 15 -6 15 -5 0 -8 -9 -7 -20z"/>
<path d="M2835 4370 c-3 -6 1 -7 9 -4 18 7 21 14 7 14 -6 0 -13 -4 -16 -10z"/>
<path d="M4837 4363 c-3 -5 6 -9 20 -10 19 -1 22 1 12 8 -17 11 -26 11 -32 2z"/>
<path d="M2890 4340 c0 -5 5 -10 11 -10 5 0 7 5 4 10 -3 6 -8 10 -11 10 -2 0
-4 -4 -4 -10z"/>
<path d="M2896 4307 c3 -10 9 -15 12 -12 3 3 0 11 -7 18 -10 9 -11 8 -5 -6z"/>
<path d="M4872 4304 c-7 -8 -8 -14 -3 -14 10 0 25 19 20 25 -2 1 -10 -3 -17
-11z"/>
<path d="M2870 4290 c-9 -6 -10 -10 -3 -10 6 0 15 5 18 10 8 12 4 12 -15 0z"/>
<path d="M4910 4281 c0 -6 4 -13 10 -16 6 -3 7 1 4 9 -7 18 -14 21 -14 7z"/>
<path d="M2875 4250 c-3 -5 -1 -10 4 -10 6 0 11 5 11 10 0 6 -2 10 -4 10 -3 0
-8 -4 -11 -10z"/>
<path d="M2922 4238 c-15 -15 -15 -28 0 -28 6 0 8 3 5 7 -4 3 -2 12 4 20 14
16 7 17 -9 1z"/>
<path d="M2946 4222 c-3 -5 1 -9 9 -9 8 0 12 4 9 9 -3 4 -7 8 -9 8 -2 0 -6 -4
-9 -8z"/>
<path d="M4939 4199 l-24 -20 28 17 c15 9 27 18 27 20 0 8 -8 4 -31 -17z"/>
<path d="M2975 4180 c-3 -5 -1 -10 4 -10 6 0 11 5 11 10 0 6 -2 10 -4 10 -3 0
-8 -4 -11 -10z"/>
<path d="M4956 4178 c3 -5 10 -6 15 -3 13 9 11 12 -6 12 -8 0 -12 -4 -9 -9z"/>
<path d="M4935 4160 c3 -5 8 -10 11 -10 2 0 4 5 4 10 0 6 -5 10 -11 10 -5 0
-7 -4 -4 -10z"/>
<path d="M4960 4156 c0 -2 7 -7 16 -10 8 -3 12 -2 9 4 -6 10 -25 14 -25 6z"/>
<path d="M2973 4114 c0 -9 4 -11 12 -4 7 5 14 9 16 7 2 -1 3 0 1 2 -7 11 -29
7 -29 -5z"/>
<path d="M2950 4105 c0 -5 5 -17 10 -25 5 -8 10 -10 10 -5 0 6 -5 17 -10 25
-5 8 -10 11 -10 5z"/>
<path d="M2990 4096 c0 -2 8 -10 18 -17 15 -13 16 -12 3 4 -13 16 -21 21 -21
13z"/>
<path d="M5013 4087 c0 -8 6 -14 14 -14 9 0 10 4 2 14 -6 7 -12 13 -14 13 -1
0 -2 -6 -2 -13z"/>
<path d="M5050 4060 c0 -5 5 -10 11 -10 5 0 7 5 4 10 -3 6 -8 10 -11 10 -2 0
-4 -4 -4 -10z"/>
<path d="M4995 4050 c-3 -6 1 -7 9 -4 18 7 21 14 7 14 -6 0 -13 -4 -16 -10z"/>
<path d="M2996 4011 c-3 -4 1 -17 10 -27 14 -18 15 -18 5 2 -6 12 -7 24 -4 28
3 3 4 6 0 6 -3 0 -8 -4 -11 -9z"/>
<path d="M3026 3998 c3 -5 10 -6 15 -3 13 9 11 12 -6 12 -8 0 -12 -4 -9 -9z"/>
<path d="M5010 3999 c0 -5 5 -7 10 -4 6 3 10 8 10 11 0 2 -4 4 -10 4 -5 0 -10
-5 -10 -11z"/>
<path d="M5046 3998 c3 -4 9 -8 15 -8 5 0 9 4 9 8 0 5 -7 9 -15 9 -8 0 -12 -4
-9 -9z"/>
<path d="M2978 3948 c5 -5 16 -8 23 -6 8 3 3 7 -10 11 -17 4 -21 3 -13 -5z"/>
<path d="M3030 3950 c-9 -6 -10 -10 -3 -10 6 0 15 5 18 10 8 12 4 12 -15 0z"/>
<path d="M5076 3933 c-4 -10 0 -23 11 -32 15 -15 16 -15 5 0 -7 9 -10 24 -6
33 3 9 4 16 1 16 -3 0 -8 -8 -11 -17z"/>
<path d="M2950 3930 c0 -5 5 -10 10 -10 6 0 10 5 10 10 0 6 -4 10 -10 10 -5 0
-10 -4 -10 -10z"/>
<path d="M3011 3914 c0 -11 3 -14 6 -6 3 7 2 16 -1 19 -3 4 -6 -2 -5 -13z"/>
<path d="M5110 3919 c0 -5 5 -7 10 -4 6 3 10 8 10 11 0 2 -4 4 -10 4 -5 0 -10
-5 -10 -11z"/>
<path d="M5136 3873 c-6 -14 -5 -15 5 -6 7 7 10 15 7 18 -3 3 -9 -2 -12 -12z"/>
<path d="M2971 3873 c-1 -17 16 -25 25 -12 4 7 3 9 -4 5 -5 -3 -13 0 -15 6 -4
9 -6 10 -6 1z"/>
<path d="M5100 3869 c0 -5 -4 -8 -9 -4 -5 3 -2 -9 7 -27 9 -18 17 -38 18 -45
1 -6 7 -19 14 -30 11 -17 11 -17 5 2 -4 11 -8 25 -9 30 -2 6 -8 21 -13 35 -6
14 -8 31 -6 38 3 6 2 12 -1 12 -3 0 -6 -5 -6 -11z"/>
<path d="M5131 3834 c0 -11 3 -14 6 -6 3 7 2 16 -1 19 -3 4 -6 -2 -5 -13z"/>
<path d="M5170 3820 c0 -5 5 -10 11 -10 5 0 7 5 4 10 -3 6 -8 10 -11 10 -2 0
-4 -4 -4 -10z"/>
<path d="M2970 3806 c0 -8 4 -17 9 -20 5 -4 7 3 4 14 -6 23 -13 26 -13 6z"/>
<path d="M2951 3797 c-1 -11 -6 -15 -13 -11 -7 5 -8 3 -3 -5 10 -16 29 2 22
21 -4 8 -6 7 -6 -5z"/>
<path d="M5147 3779 c7 -7 15 -10 18 -7 3 3 -2 9 -12 12 -14 6 -15 5 -6 -5z"/>
<path d="M5210 3739 c0 -5 5 -7 10 -4 6 3 10 8 10 11 0 2 -4 4 -10 4 -5 0 -10
-5 -10 -11z"/>
<path d="M2900 3726 c0 -2 7 -7 16 -10 8 -3 12 -2 9 4 -6 10 -25 14 -25 6z"/>
<path d="M2890 3687 c-10 -19 -9 -20 2 -6 7 9 19 14 26 12 17 -6 15 4 -3 11
-9 3 -19 -3 -25 -17z"/>
<path d="M5175 3680 c3 -5 8 -10 11 -10 2 0 4 5 4 10 0 6 -5 10 -11 10 -5 0
-7 -4 -4 -10z"/>
<path d="M2896 3661 c-3 -5 1 -14 8 -20 10 -9 16 -9 21 -1 4 6 1 9 -7 8 -7 -2
-12 3 -10 10 2 14 -4 16 -12 3z"/>
<path d="M5200 3660 c-8 -5 -10 -10 -5 -10 6 0 17 5 25 10 8 5 11 10 5 10 -5
0 -17 -5 -25 -10z"/>
<path d="M2840 3640 c0 -5 5 -10 11 -10 5 0 7 -5 3 -12 -4 -7 -3 -8 4 -4 6 4
9 13 5 21 -6 17 -23 20 -23 5z"/>
<path d="M5230 3641 c0 -6 4 -13 10 -16 6 -3 7 1 4 9 -7 18 -14 21 -14 7z"/>
<path d="M2869 3603 c-13 -16 -12 -17 4 -4 16 13 21 21 13 21 -2 0 -10 -8 -17
-17z"/>
<path d="M5217 3599 c-3 -12 0 -22 9 -26 8 -3 12 -8 10 -12 -3 -4 5 -8 17 -8
20 -2 20 -1 -4 15 -15 10 -23 24 -21 35 5 24 -5 21 -11 -4z"/>
<path d="M5256 3579 c4 -8 30 -6 38 2 3 3 -5 5 -19 5 -13 0 -22 -3 -19 -7z"/>
<path d="M2846 3564 c-9 -8 -14 -20 -11 -25 9 -13 15 -11 13 4 -2 6 2 11 8 10
6 -1 11 5 11 13 0 18 -2 18 -21 -2z"/>
<path d="M2800 3515 c-19 -22 -8 -25 13 -3 9 10 13 18 8 18 -5 0 -14 -7 -21
-15z"/>
<path d="M5268 3513 c9 -3 10 -9 2 -18 -7 -9 -5 -16 7 -26 16 -13 17 -12 4 3
-11 15 -11 19 4 24 13 5 14 9 3 15 -7 5 -17 8 -23 8 -5 0 -4 -3 3 -6z"/>
<path d="M2815 3500 c-2 -3 9 -6 25 -6 17 0 27 2 25 5 -8 7 -45 9 -50 1z"/>
<path d="M5308 3477 c-3 -19 -2 -25 4 -19 6 6 8 18 6 28 -3 14 -5 12 -10 -9z"/>
<path d="M2810 3441 c0 -6 4 -13 10 -16 6 -3 7 1 4 9 -7 18 -14 21 -14 7z"/>
<path d="M2750 3430 c8 -5 20 -10 25 -10 6 0 3 5 -5 10 -8 5 -19 10 -25 10 -5
0 -3 -5 5 -10z"/>
<path d="M5305 3430 c-3 -6 1 -7 9 -4 18 7 21 14 7 14 -6 0 -13 -4 -16 -10z"/>
<path d="M2723 3413 c-18 -7 -16 -16 7 -30 14 -9 21 -10 26 -1 4 6 3 8 -4 4
-6 -3 -14 -1 -18 5 -3 6 0 15 7 20 15 9 2 11 -18 2z"/>
<path d="M5332 3411 c-11 -7 -11 -9 0 -14 9 -3 15 1 15 9 0 8 -1 14 -1 14 -1
0 -7 -4 -14 -9z"/>
<path d="M5395 3401 c-3 -5 -2 -12 3 -15 5 -3 9 1 9 9 0 17 -3 19 -12 6z"/>
<path d="M2700 3365 c14 -17 30 -20 30 -4 0 5 -4 7 -10 4 -5 -3 -10 -1 -10 4
0 6 -5 11 -11 11 -8 0 -8 -5 1 -15z"/>
<path d="M2759 3353 c-13 -16 -12 -17 4 -4 16 13 21 21 13 21 -2 0 -10 -8 -17
-17z"/>
<path d="M5396 3313 c-6 -14 -5 -15 5 -6 7 7 10 15 7 18 -3 3 -9 -2 -12 -12z"/>
<path d="M5375 3290 c10 -11 20 -20 22 -20 2 0 -2 9 -9 20 -7 11 -17 20 -22
20 -5 0 -1 -9 9 -20z"/>
<path d="M5413 3273 c0 -10 4 -10 16 -1 9 7 18 13 20 15 2 1 -5 1 -16 0 -11 0
-20 -7 -20 -14z"/>
<path d="M2668 3273 c7 -3 16 -2 19 1 4 3 -2 6 -13 5 -11 0 -14 -3 -6 -6z"/>
<path d="M2707 3259 c7 -7 15 -10 18 -7 3 3 -2 9 -12 12 -14 6 -15 5 -6 -5z"/>
<path d="M2680 3240 c-9 -6 -10 -10 -3 -10 6 0 15 5 18 10 8 12 4 12 -15 0z"/>
<path d="M5474 3176 c1 -8 5 -18 8 -22 4 -3 5 1 4 10 -1 8 -5 18 -8 22 -4 3
-5 -1 -4 -10z"/>
<path d="M5430 3170 c0 -6 7 -13 15 -16 8 -4 12 -11 8 -17 -3 -6 -1 -7 5 -3
15 9 15 9 -8 29 -11 9 -20 12 -20 7z"/>
<path d="M2634 3163 c3 -3 -2 -12 -12 -20 -15 -12 -14 -13 8 -1 14 7 30 11 35
9 6 -1 6 1 2 5 -4 4 -15 9 -23 10 -9 1 -13 0 -10 -3z"/>
<path d="M2590 3126 c0 -8 4 -17 9 -20 5 -4 7 3 4 14 -6 23 -13 26 -13 6z"/>
<path d="M5473 3125 c-3 -9 -3 -18 -1 -21 3 -3 8 4 11 16 6 23 -1 27 -10 5z"/>
<path d="M2625 3120 c-3 -6 1 -7 9 -4 18 7 21 14 7 14 -6 0 -13 -4 -16 -10z"/>
<path d="M5486 3078 c3 -4 9 -8 15 -8 5 0 9 4 9 8 0 5 -7 9 -15 9 -8 0 -12 -4
-9 -9z"/>
<path d="M2610 3059 c0 -5 5 -7 10 -4 6 3 10 8 10 11 0 2 -4 4 -10 4 -5 0 -10
-5 -10 -11z"/>
<path d="M5550 3037 c0 -2 6 -10 14 -16 11 -9 16 -9 22 1 4 7 4 10 -1 6 -4 -4
-14 -3 -22 3 -7 6 -13 9 -13 6z"/>
<path d="M2580 3025 c0 -2 6 -8 13 -14 10 -8 14 -7 14 2 0 8 -6 14 -14 14 -7
0 -13 -1 -13 -2z"/>
<path d="M5506 3008 c3 -5 10 -6 15 -3 13 9 11 12 -6 12 -8 0 -12 -4 -9 -9z"/>
<path d="M2525 3000 c-3 -6 1 -7 9 -4 18 7 21 14 7 14 -6 0 -13 -4 -16 -10z"/>
<path d="M2535 2980 c-3 -6 1 -7 9 -4 18 7 21 14 7 14 -6 0 -13 -4 -16 -10z"/>
<path d="M5540 2986 c0 -2 8 -10 18 -17 15 -13 16 -12 3 4 -13 16 -21 21 -21
13z"/>
<path d="M2510 2941 c0 -6 4 -12 8 -15 5 -3 9 1 9 9 0 8 -4 15 -9 15 -4 0 -8
-4 -8 -9z"/>
<path d="M5530 2945 c0 -7 30 -13 34 -7 3 4 -4 9 -15 9 -10 1 -19 0 -19 -2z"/>
<path d="M5589 2937 c6 -8 9 -16 6 -19 -3 -2 2 -5 10 -5 13 0 13 3 -2 19 -19
21 -31 25 -14 5z"/>
<path d="M5571 2914 c0 -11 3 -14 6 -6 3 7 2 16 -1 19 -3 4 -6 -2 -5 -13z"/>
<path d="M2490 2891 c0 -6 4 -13 10 -16 6 -3 7 1 4 9 -7 18 -14 21 -14 7z"/>
<path d="M5590 2870 c6 -11 16 -20 23 -19 9 0 9 2 -1 6 -6 2 -10 8 -7 13 3 4
-2 11 -10 14 -13 4 -14 2 -5 -14z"/>
<path d="M5630 2856 c0 -2 8 -10 18 -17 15 -13 16 -12 3 4 -13 16 -21 21 -21
13z"/>
<path d="M5673 2845 c0 -8 4 -12 9 -9 5 3 6 10 3 15 -9 13 -12 11 -12 -6z"/>
<path d="M2486 2802 c-3 -5 1 -9 9 -9 8 0 12 4 9 9 -3 4 -7 8 -9 8 -2 0 -6 -4
-9 -8z"/>
<path d="M2412 2760 c0 -14 2 -19 5 -12 2 6 2 18 0 25 -3 6 -5 1 -5 -13z"/>
<path d="M5652 2771 c5 -16 35 -24 43 -11 3 5 -3 7 -12 6 -10 -2 -22 2 -26 8
-6 7 -7 6 -5 -3z"/>
<path d="M2430 2740 c0 -4 7 -7 15 -6 23 3 26 12 5 13 -11 1 -20 -2 -20 -7z"/>
<path d="M5635 2740 c3 -5 8 -10 11 -10 2 0 4 5 4 10 0 6 -5 10 -11 10 -5 0
-7 -4 -4 -10z"/>
<path d="M2426 2698 c3 -5 10 -6 15 -3 13 9 11 12 -6 12 -8 0 -12 -4 -9 -9z"/>
<path d="M5667 2696 c-4 -10 -1 -13 9 -9 15 6 19 23 5 23 -5 0 -11 -7 -14 -14z"/>
<path d="M5721 2628 c5 -10 11 -18 12 -18 2 0 3 8 3 18 0 10 -6 19 -13 19 -8
0 -9 -6 -2 -19z"/>
<path d="M5753 2625 c0 -8 4 -12 9 -9 5 3 6 10 3 15 -9 13 -12 11 -12 -6z"/>
<path d="M5796 2627 c3 -10 9 -15 12 -12 3 3 0 11 -7 18 -10 9 -11 8 -5 -6z"/>
<path d="M2354 2582 c3 -6 -2 -15 -11 -21 -10 -6 -13 -11 -7 -11 20 0 37 27
23 36 -7 4 -9 3 -5 -4z"/>
<path d="M5815 2549 c-4 -6 -5 -12 -2 -15 2 -3 7 2 10 11 7 17 1 20 -8 4z"/>
<path d="M2290 2520 c0 -5 5 -10 10 -10 6 0 10 5 10 10 0 6 -4 10 -10 10 -5 0
-10 -4 -10 -10z"/>
<path d="M5766 2518 c3 -4 9 -8 15 -8 5 0 9 4 9 8 0 5 -7 9 -15 9 -8 0 -12 -4
-9 -9z"/>
<path d="M5751 2503 c7 -12 15 -20 18 -17 3 2 -3 12 -13 22 -17 16 -18 16 -5
-5z"/>
<path d="M2320 2500 c-9 -6 -10 -10 -3 -10 6 0 15 5 18 10 8 12 4 12 -15 0z"/>
<path d="M5795 2490 c3 -5 8 -10 11 -10 2 0 4 5 4 10 0 6 -5 10 -11 10 -5 0
-7 -4 -4 -10z"/>
<path d="M5785 2441 c-3 -5 0 -13 6 -17 7 -4 9 -3 5 4 -3 5 0 13 6 15 9 4 10
6 1 6 -6 1 -14 -3 -18 -8z"/>
<path d="M5812 2396 c7 -8 15 -12 17 -11 5 6 -10 25 -20 25 -5 0 -4 -6 3 -14z"/>
<path d="M5876 2354 c-3 -9 -11 -12 -18 -8 -7 4 -9 3 -5 -1 14 -16 33 -13 34
6 2 23 -3 24 -11 3z"/>
<path d="M5913 2315 c0 -8 4 -12 9 -9 5 3 6 10 3 15 -9 13 -12 11 -12 -6z"/>
<path d="M3642 2278 c-15 -15 -15 -28 0 -28 6 0 8 3 5 7 -4 3 -2 12 4 20 14
16 7 17 -9 1z"/>
<path d="M5906 2282 c-3 -5 1 -9 9 -9 8 0 15 4 15 9 0 4 -4 8 -9 8 -6 0 -12
-4 -15 -8z"/>
<path d="M3690 2260 c0 -5 5 -10 11 -10 5 0 7 5 4 10 -3 6 -8 10 -11 10 -2 0
-4 -4 -4 -10z"/>
<path d="M5875 2260 c3 -5 8 -10 11 -10 2 0 4 5 4 10 0 6 -5 10 -11 10 -5 0
-7 -4 -4 -10z"/>
<path d="M3644 2228 l-19 -23 25 20 c14 11 27 21 29 22 2 2 0 3 -6 3 -5 0 -18
-10 -29 -22z"/>
<path d="M5970 2221 c0 -6 4 -13 10 -16 6 -3 7 1 4 9 -7 18 -14 21 -14 7z"/>
<path d="M3645 2200 c-3 -6 1 -7 9 -4 18 7 21 14 7 14 -6 0 -13 -4 -16 -10z"/>
<path d="M3665 2184 c-19 -20 -6 -38 21 -31 15 4 14 5 -5 6 -23 1 -24 2 -6 21
22 24 13 27 -10 4z"/>
<path d="M3693 2177 c-3 -6 -1 -7 5 -3 5 3 12 1 14 -6 3 -8 6 -7 10 3 7 17
-19 22 -29 6z"/>
<path d="M5915 2180 c3 -5 8 -10 11 -10 2 0 4 5 4 10 0 6 -5 10 -11 10 -5 0
-7 -4 -4 -10z"/>
<path d="M5964 2159 c-3 -6 -2 -15 3 -20 5 -5 9 -1 9 11 0 23 -2 24 -12 9z"/>
<path d="M6036 2147 c3 -10 9 -15 12 -12 3 3 0 11 -7 18 -10 9 -11 8 -5 -6z"/>
<path d="M3727 2126 c-3 -8 0 -17 7 -19 10 -4 12 1 9 14 -6 23 -9 24 -16 5z"/>
<path d="M3675 2120 c-3 -6 1 -7 9 -4 18 7 21 14 7 14 -6 0 -13 -4 -16 -10z"/>
<path d="M3747 2079 c7 -7 15 -10 18 -7 3 3 -2 9 -12 12 -14 6 -15 5 -6 -5z"/>
<path d="M3733 2053 c-7 -2 -13 -12 -12 -21 0 -11 2 -12 6 -4 2 6 8 10 12 8 4
-3 8 1 8 9 0 8 -1 15 -1 14 -1 0 -7 -3 -13 -6z"/>
<path d="M5992 2036 c7 -8 15 -12 17 -11 5 6 -10 25 -20 25 -5 0 -4 -6 3 -14z"/>
<path d="M3740 2016 c0 -2 7 -7 16 -10 8 -3 12 -2 9 4 -6 10 -25 14 -25 6z"/>
<path d="M6021 1999 c17 -11 39 -12 39 -1 0 4 -12 8 -27 9 -19 1 -22 -1 -12
-8z"/>
<path d="M3731 1991 c-8 -5 -9 -11 -3 -15 5 -3 12 1 16 9 6 17 6 18 -13 6z"/>
<path d="M3835 1980 c3 -5 8 -10 11 -10 2 0 4 5 4 10 0 6 -5 10 -11 10 -5 0
-7 -4 -4 -10z"/>
<path d="M6095 1980 c-3 -5 -1 -10 4 -10 6 0 11 5 11 10 0 6 -2 10 -4 10 -3 0
-8 -4 -11 -10z"/>
<path d="M3750 1972 c0 -5 7 -13 16 -16 22 -8 24 -8 24 6 0 6 -3 8 -7 5 -3 -4
-12 -2 -20 4 -8 7 -13 8 -13 1z"/>
<path d="M6050 1970 c-9 -6 -10 -10 -3 -10 6 0 15 5 18 10 8 12 4 12 -15 0z"/>
<path d="M3740 1943 c11 -24 30 -31 30 -11 0 6 -3 8 -7 5 -3 -4 -12 1 -20 11
-13 15 -13 15 -3 -5z"/>
<path d="M3807 1879 c7 -7 15 -10 18 -7 3 3 -2 9 -12 12 -14 6 -15 5 -6 -5z"/>
<path d="M6110 1835 c0 -8 4 -15 10 -15 5 0 7 7 4 15 -4 8 -8 15 -10 15 -2 0
-4 -7 -4 -15z"/>
<path d="M3815 1821 c-3 -5 0 -13 6 -17 7 -4 9 -3 5 4 -3 6 2 13 11 15 16 4
16 5 1 6 -9 0 -19 -3 -23 -8z"/>
<path d="M3846 1802 c-3 -5 1 -9 9 -9 8 0 12 4 9 9 -3 4 -7 8 -9 8 -2 0 -6 -4
-9 -8z"/>
<path d="M6154 1786 c1 -14 4 -28 7 -31 3 -3 5 6 5 19 -1 14 -4 28 -7 31 -3 3
-5 -6 -5 -19z"/>
<path d="M3890 1759 c0 -5 5 -7 10 -4 6 3 10 8 10 11 0 2 -4 4 -10 4 -5 0 -10
-5 -10 -11z"/>
<path d="M3831 1727 c-13 -21 -12 -21 5 -5 10 10 16 20 13 22 -3 3 -11 -5 -18
-17z"/>
<path d="M3860 1730 c0 -5 0 -13 1 -17 0 -4 -8 -11 -18 -15 -17 -7 -17 -8 1
-5 16 2 36 47 21 47 -3 0 -5 -4 -5 -10z"/>
<path d="M3880 1702 c0 -6 -12 -18 -27 -26 -16 -8 -23 -15 -17 -16 18 0 60 37
52 46 -5 4 -8 2 -8 -4z"/>
<path d="M3910 1679 c0 -5 5 -7 10 -4 6 3 10 8 10 11 0 2 -4 4 -10 4 -5 0 -10
-5 -10 -11z"/>
<path d="M6194 1682 c4 -3 14 -7 22 -8 9 -1 13 0 10 4 -4 3 -14 7 -22 8 -9 1
-13 0 -10 -4z"/>
<path d="M3875 1659 c-4 -6 -4 -13 -1 -16 3 -4 6 -1 6 6 0 7 5 9 12 5 7 -4 8
-3 4 4 -9 15 -13 15 -21 1z"/>
<path d="M3935 1660 c-3 -5 -1 -10 4 -10 6 0 11 5 11 10 0 6 -2 10 -4 10 -3 0
-8 -4 -11 -10z"/>
<path d="M6176 1661 c-7 -11 22 -36 31 -28 3 4 -2 9 -11 13 -9 3 -13 10 -10
15 3 5 3 9 0 9 -3 0 -7 -4 -10 -9z"/>
<path d="M3906 1642 c-3 -5 1 -9 9 -9 8 0 12 4 9 9 -3 4 -7 8 -9 8 -2 0 -6 -4
-9 -8z"/>
<path d="M3866 1614 c-4 -9 -4 -19 -1 -22 3 -3 5 0 5 8 0 10 4 10 18 -1 15
-12 16 -12 5 2 -7 9 -10 19 -6 22 3 4 2 7 -4 7 -6 0 -14 -7 -17 -16z"/>
<path d="M3920 1600 c-9 -6 -10 -10 -3 -10 6 0 15 5 18 10 8 12 4 12 -15 0z"/>
<path d="M6259 1593 c-13 -16 -12 -17 4 -4 16 13 21 21 13 21 -2 0 -10 -8 -17
-17z"/>
<path d="M3862 1573 c-10 -4 -9 -8 5 -19 10 -7 23 -13 28 -13 6 0 1 5 -10 11
-19 11 -19 11 0 19 13 5 14 8 5 8 -8 -1 -21 -3 -28 -6z"/>
<path d="M6226 1562 c-3 -5 1 -9 9 -9 8 0 15 4 15 9 0 4 -4 8 -9 8 -6 0 -12
-4 -15 -8z"/>
<path d="M2596 1534 c-11 -8 -16 -14 -10 -14 13 0 39 18 34 24 -3 2 -14 -2
-24 -10z"/>
<path d="M3276 1534 c-11 -8 -16 -14 -10 -14 13 0 39 18 34 24 -3 2 -14 -2
-24 -10z"/>
<path d="M3843 1544 c9 -3 15 -9 12 -14 -3 -5 -1 -11 4 -14 5 -4 8 2 7 11 -2
10 -11 19 -22 20 -16 2 -16 1 -1 -3z"/>
<path d="M6253 1536 c-3 -6 -3 -8 2 -4 4 4 13 3 20 -2 8 -7 12 -5 12 3 0 16
-25 18 -34 3z"/>
<path d="M2493 1528 c-13 -6 -23 -15 -23 -20 0 -5 11 -1 25 8 37 24 35 30 -2
12z"/>
<path d="M3685 1529 c-11 -16 -1 -19 13 -3 7 8 8 14 3 14 -5 0 -13 -5 -16 -11z"/>
<path d="M3721 1537 c2 -1 13 -9 24 -17 19 -14 19 -14 6 3 -7 9 -18 17 -24 17
-6 0 -8 -1 -6 -3z"/>
<path d="M2793 1512 c2 -12 6 -24 10 -28 3 -4 4 4 2 16 -6 30 -16 40 -12 12z"/>
<path d="M3236 1515 c4 -8 8 -15 10 -15 2 0 4 7 4 15 0 8 -4 15 -10 15 -5 0
-7 -7 -4 -15z"/>
<path d="M6296 1513 c-6 -14 -5 -15 5 -6 7 7 10 15 7 18 -3 3 -9 -2 -12 -12z"/>
<path d="M2426 1503 c-6 -14 -5 -15 5 -6 7 7 10 15 7 18 -3 3 -9 -2 -12 -12z"/>
<path d="M2510 1510 c-8 -5 -15 -20 -16 -34 0 -14 3 -23 7 -21 4 3 6 13 4 23
-1 9 7 22 19 29 11 7 17 12 11 12 -5 1 -17 -3 -25 -9z"/>
<path d="M2706 1503 c-6 -14 -5 -15 5 -6 7 7 10 15 7 18 -3 3 -9 -2 -12 -12z"/>
<path d="M3701 1516 c2 -2 15 -9 29 -15 24 -11 24 -11 6 3 -16 13 -49 24 -35
12z"/>
<path d="M3786 1503 c-6 -14 -5 -15 5 -6 7 7 10 15 7 18 -3 3 -9 -2 -12 -12z"/>
<path d="M1818 1492 c16 -13 20 -21 12 -30 -5 -7 -2 -5 7 3 16 14 16 16 -2 30
-11 8 -24 14 -30 14 -5 1 0 -7 13 -17z"/>
<path d="M1934 1502 c3 -5 0 -13 -6 -15 -9 -4 -10 -6 -1 -6 17 -1 25 16 12 25
-7 4 -9 3 -5 -4z"/>
<path d="M2030 1500 c0 -5 5 -10 10 -10 6 0 10 5 10 10 0 6 -4 10 -10 10 -5 0
-10 -4 -10 -10z"/>
<path d="M2113 1495 c0 -8 4 -12 9 -9 4 3 8 9 8 15 0 5 -4 9 -8 9 -5 0 -9 -7
-9 -15z"/>
<path d="M2215 1501 c-3 -6 3 -14 13 -20 14 -7 19 -6 19 4 0 7 -7 11 -15 7
-10 -3 -13 -1 -8 6 4 7 5 12 2 12 -3 0 -7 -4 -11 -9z"/>
<path d="M2297 1489 c4 -13 8 -18 11 -10 2 7 -1 18 -6 23 -8 8 -9 4 -5 -13z"/>
<path d="M2375 1500 c-3 -6 1 -7 9 -4 18 7 21 14 7 14 -6 0 -13 -4 -16 -10z"/>
<path d="M2575 1499 c-8 -12 0 -22 20 -25 8 -1 13 2 9 7 -3 5 -10 6 -16 3 -7
-5 -9 -1 -5 9 7 19 2 23 -8 6z"/>
<path d="M2990 1500 c0 -5 5 -10 10 -10 6 0 10 5 10 10 0 6 -4 10 -10 10 -5 0
-10 -4 -10 -10z"/>
<path d="M3073 1495 c0 -8 4 -12 9 -9 4 3 8 9 8 15 0 5 -4 9 -8 9 -5 0 -9 -7
-9 -15z"/>
<path d="M3175 1501 c-6 -11 13 -26 22 -17 4 3 1 6 -6 6 -7 0 -9 5 -6 10 3 6
4 10 1 10 -3 0 -7 -4 -11 -9z"/>
<path d="M3280 1506 c0 -2 7 -7 16 -10 8 -3 12 -2 9 4 -6 10 -25 14 -25 6z"/>
<path d="M3415 1500 c-3 -6 1 -7 9 -4 18 7 21 14 7 14 -6 0 -13 -4 -16 -10z"/>
<path d="M3600 1506 c0 -2 7 -7 16 -10 8 -3 12 -2 9 4 -6 10 -25 14 -25 6z"/>
<path d="M2630 1489 c0 -5 5 -7 10 -4 6 3 10 8 10 11 0 2 -4 4 -10 4 -5 0 -10
-5 -10 -11z"/>
<path d="M2660 1496 c0 -2 7 -7 16 -10 8 -3 12 -2 9 4 -6 10 -25 14 -25 6z"/>
<path d="M2914 1480 c0 -13 4 -16 10 -10 7 7 7 13 0 20 -6 6 -10 3 -10 -10z"/>
<path d="M3675 1491 c-3 -5 -2 -12 3 -15 5 -3 9 1 9 9 0 17 -3 19 -12 6z"/>
<path d="M3857 1493 c-10 -9 -9 -23 1 -23 5 0 9 7 9 15 0 17 -1 18 -10 8z"/>
<path d="M1792 1476 c7 -8 15 -12 17 -11 5 6 -10 25 -20 25 -5 0 -4 -6 3 -14z"/>
<path d="M2381 1476 c-8 -10 -9 -16 -1 -21 6 -4 9 -1 8 7 -2 7 3 12 10 11 6
-2 12 2 12 7 0 14 -16 12 -29 -4z"/>
<path d="M2879 1473 c-13 -16 -12 -17 4 -4 16 13 21 21 13 21 -2 0 -10 -8 -17
-17z"/>
<path d="M2096 1467 c3 -10 9 -15 12 -12 3 3 0 11 -7 18 -10 9 -11 8 -5 -6z"/>
<path d="M3056 1467 c3 -10 9 -15 12 -12 3 3 0 11 -7 18 -10 9 -11 8 -5 -6z"/>
<path d="M1775 1459 c-8 -12 0 -22 20 -25 8 -1 13 2 9 7 -3 5 -10 6 -16 3 -7
-5 -9 -1 -5 9 7 19 2 23 -8 6z"/>
<path d="M2667 1459 c7 -7 15 -10 18 -7 3 3 -2 9 -12 12 -14 6 -15 5 -6 -5z"/>
<path d="M2706 1458 c3 -5 10 -6 15 -3 13 9 11 12 -6 12 -8 0 -12 -4 -9 -9z"/>
<path d="M2775 1460 c3 -5 8 -10 11 -10 2 0 4 5 4 10 0 6 -5 10 -11 10 -5 0
-7 -4 -4 -10z"/>
<path d="M3467 1459 c7 -7 15 -10 18 -7 3 3 -2 9 -12 12 -14 6 -15 5 -6 -5z"/>
<path d="M6313 1455 c0 -8 4 -12 9 -9 5 3 6 10 3 15 -9 13 -12 11 -12 -6z"/>
<path d="M1953 1445 c0 -8 4 -12 9 -9 5 3 6 10 3 15 -9 13 -12 11 -12 -6z"/>
<path d="M1753 1432 c2 -12 6 -24 10 -28 3 -4 4 4 2 16 -6 30 -16 40 -12 12z"/>
<path d="M2195 1440 c3 -5 8 -10 11 -10 2 0 4 5 4 10 0 6 -5 10 -11 10 -5 0
-7 -4 -4 -10z"/>
<path d="M2340 1440 c-9 -6 -10 -10 -3 -10 6 0 15 5 18 10 8 12 4 12 -15 0z"/>
<path d="M3155 1440 c3 -5 8 -10 11 -10 2 0 4 5 4 10 0 6 -5 10 -11 10 -5 0
-7 -4 -4 -10z"/>
<path d="M3305 1440 c-3 -6 1 -7 9 -4 18 7 21 14 7 14 -6 0 -13 -4 -16 -10z"/>
<path d="M3625 1440 c-3 -6 1 -7 9 -4 18 7 21 14 7 14 -6 0 -13 -4 -16 -10z"/>
<path d="M6310 1421 c0 -6 4 -12 8 -15 5 -3 9 1 9 9 0 8 -4 15 -9 15 -4 0 -8
-4 -8 -9z"/>
<path d="M6354 1370 c-1 -17 4 -31 14 -35 11 -4 12 -2 5 7 -6 7 -9 21 -8 30 2
10 0 20 -4 22 -3 2 -7 -9 -7 -24z"/>
<path d="M1753 1355 c0 -8 4 -12 9 -9 5 3 6 10 3 15 -9 13 -12 11 -12 -6z"/>
<path d="M1695 1339 c-4 -6 -4 -13 -1 -16 3 -4 6 -1 6 6 0 7 5 9 12 5 7 -4 8
-3 4 4 -9 15 -13 15 -21 1z"/>
<path d="M6352 1314 c10 -10 20 -16 22 -13 3 3 -5 11 -17 18 -21 13 -21 12 -5
-5z"/>
<path d="M1670 1306 c0 -2 7 -7 16 -10 8 -3 12 -2 9 4 -6 10 -25 14 -25 6z"/>
<path d="M6350 1278 c0 -4 4 -8 9 -8 6 0 12 4 15 8 3 5 -1 9 -9 9 -8 0 -15 -4
-15 -9z"/>
<path d="M6396 1278 c3 -5 10 -6 15 -3 13 9 11 12 -6 12 -8 0 -12 -4 -9 -9z"/>
<path d="M1656 1258 c3 -5 10 -6 15 -3 13 9 11 12 -6 12 -8 0 -12 -4 -9 -9z"/>
<path d="M6375 1261 c-3 -6 4 -15 16 -21 12 -7 19 -8 15 -2 -3 6 0 13 6 16 7
3 2 3 -11 0 -16 -4 -21 -3 -17 5 4 6 5 11 2 11 -3 0 -7 -4 -11 -9z"/>
<path d="M1660 1226 c0 -2 8 -10 18 -17 15 -13 16 -12 3 4 -13 16 -21 21 -21
13z"/>
<path d="M6450 1171 c0 -6 4 -13 10 -16 6 -3 7 1 4 9 -7 18 -14 21 -14 7z"/>
<path d="M1590 1151 c0 -6 4 -12 8 -15 5 -3 9 1 9 9 0 8 -4 15 -9 15 -4 0 -8
-4 -8 -9z"/>
<path d="M1626 1142 c-3 -5 1 -9 9 -9 8 0 15 4 15 9 0 4 -4 8 -9 8 -6 0 -12
-4 -15 -8z"/>
<path d="M6435 1140 c-3 -5 -1 -10 4 -10 6 0 11 5 11 10 0 6 -2 10 -4 10 -3 0
-8 -4 -11 -10z"/>
<path d="M6460 1119 c0 -13 -4 -18 -12 -13 -14 9 10 -26 27 -38 6 -4 6 -8 1
-8 -11 0 14 -30 25 -30 5 0 9 5 9 10 0 6 -3 9 -7 8 -5 -2 -8 0 -8 3 0 3 -7 14
-15 24 -8 10 -13 28 -12 41 2 13 1 24 -2 24 -3 0 -6 -9 -6 -21z"/>
<path d="M1570 1120 c0 -5 5 -10 10 -10 6 0 10 5 10 10 0 6 -4 10 -10 10 -5 0
-10 -4 -10 -10z"/>
<path d="M6516 1122 c-3 -5 1 -9 9 -9 8 0 12 4 9 9 -3 4 -7 8 -9 8 -2 0 -6 -4
-9 -8z"/>
<path d="M1561 1093 c-1 -6 -4 -20 -7 -30 -5 -17 -5 -17 6 0 6 10 9 23 6 30
-3 9 -5 9 -5 0z"/>
<path d="M1562 1039 c-7 -11 -18 -17 -25 -13 -7 4 -8 3 -4 -1 4 -5 15 -10 23
-11 9 -1 13 0 10 3 -3 4 -1 12 6 20 6 7 9 15 7 18 -3 2 -10 -5 -17 -16z"/>
<path d="M6526 1042 c-3 -5 1 -9 9 -9 8 0 12 4 9 9 -3 4 -7 8 -9 8 -2 0 -6 -4
-9 -8z"/>
<path d="M6512 1000 c0 -14 2 -19 5 -12 2 6 2 18 0 25 -3 6 -5 1 -5 -13z"/>
<path d="M1514 999 c-3 -6 -1 -16 5 -22 9 -9 10 -7 5 7 -6 15 -4 17 6 11 9 -5
11 -4 6 3 -9 15 -13 15 -22 1z"/>
<path d="M6553 975 c0 -8 4 -12 9 -9 5 3 6 10 3 15 -9 13 -12 11 -12 -6z"/>
<path d="M1490 960 c0 -5 5 -10 10 -10 6 0 10 5 10 10 0 6 -4 10 -10 10 -5 0
-10 -4 -10 -10z"/>
<path d="M6550 942 c0 -11 27 -42 37 -42 3 0 -2 10 -13 23 -10 12 -20 24 -21
26 -2 2 -3 -1 -3 -7z"/>
<path d="M6573 877 c-3 -6 -1 -7 5 -3 7 4 12 3 12 -2 0 -6 7 -13 16 -16 13 -5
14 -4 6 7 -7 8 -10 16 -7 19 3 2 -2 5 -10 5 -9 0 -19 -5 -22 -10z"/>
<path d="M1490 859 c0 -5 5 -7 10 -4 6 3 10 8 10 11 0 2 -4 4 -10 4 -5 0 -10
-5 -10 -11z"/>
<path d="M1423 853 c-14 -5 -17 -29 -5 -37 4 -2 14 0 22 6 12 8 12 9 -2 4 -26
-8 -22 13 5 24 12 5 15 9 7 9 -8 -1 -21 -3 -27 -6z"/>
<path d="M1460 826 c0 -2 8 -10 18 -17 15 -13 16 -12 3 4 -13 16 -21 21 -21
13z"/>
<path d="M1431 792 c-7 -14 -6 -19 4 -19 7 0 11 7 7 15 -4 11 -1 13 8 7 9 -5
11 -4 6 3 -10 16 -14 15 -25 -6z"/>
<path d="M1370 760 c0 -5 5 -10 10 -10 6 0 10 5 10 10 0 6 -4 10 -10 10 -5 0
-10 -4 -10 -10z"/>
<path d="M1390 725 c0 -8 2 -15 4 -15 2 0 6 7 10 15 3 8 1 15 -4 15 -6 0 -10
-7 -10 -15z"/>
<path d="M6661 737 c2 -1 11 -8 21 -15 12 -10 18 -10 24 -1 4 7 3 9 -4 5 -6
-3 -13 -2 -17 4 -3 5 -11 10 -17 10 -6 0 -9 -1 -7 -3z"/>
<path d="M6693 693 c-17 -6 -17 -20 0 -26 8 -3 13 3 13 14 0 11 0 19 -1 18 0
0 -6 -3 -12 -6z"/>
<path d="M1355 680 c-3 -5 -2 -10 4 -10 5 0 13 5 16 10 3 6 2 10 -4 10 -5 0
-13 -4 -16 -10z"/>
<path d="M1275 640 c-3 -5 -1 -10 4 -10 6 0 11 5 11 10 0 6 -2 10 -4 10 -3 0
-8 -4 -11 -10z"/>
<path d="M1330 610 c-9 -6 -10 -10 -3 -10 6 0 15 5 18 10 8 12 4 12 -15 0z"/>
<path d="M1297 594 c-4 -4 -4 -11 -1 -15 7 -12 34 -11 34 1 0 5 -7 6 -17 3
-11 -4 -14 -3 -9 5 8 13 3 16 -7 6z"/>
<path d="M6753 585 c0 -8 4 -12 9 -9 5 3 6 10 3 15 -9 13 -12 11 -12 -6z"/>
<path d="M6726 563 c-6 -14 -5 -15 5 -6 7 7 10 15 7 18 -3 3 -9 -2 -12 -12z"/>
<path d="M1330 540 c0 -5 5 -10 11 -10 5 0 7 5 4 10 -3 6 -8 10 -11 10 -2 0
-4 -4 -4 -10z"/>
<path d="M6735 540 c-3 -5 -1 -10 4 -10 6 0 11 5 11 10 0 6 -2 10 -4 10 -3 0
-8 -4 -11 -10z"/>
<path d="M6763 535 c-3 -9 -3 -18 -1 -21 3 -3 8 4 11 16 6 23 -1 27 -10 5z"/>
<path d="M1336 498 c3 -5 10 -6 15 -3 13 9 11 12 -6 12 -8 0 -12 -4 -9 -9z"/>
<path d="M1250 478 c0 -11 12 -10 30 2 12 7 10 9 -8 7 -12 0 -22 -5 -22 -9z"/>
<path d="M6790 485 c0 -5 5 -17 10 -25 5 -8 10 -10 10 -5 0 6 -5 17 -10 25 -5
8 -10 11 -10 5z"/>
<path d="M6760 466 c0 -2 7 -9 15 -16 13 -11 14 -10 9 4 -5 14 -24 23 -24 12z"/>
<path d="M1241 444 c0 -11 3 -14 6 -6 3 7 2 16 -1 19 -3 4 -6 -2 -5 -13z"/>
<path d="M1256 407 c3 -10 9 -15 12 -12 3 3 0 11 -7 18 -10 9 -11 8 -5 -6z"/>
<path d="M6817 405 c-4 -8 -3 -16 1 -19 4 -3 9 4 9 15 2 23 -3 25 -10 4z"/>
<path d="M1190 371 c0 -6 5 -13 12 -17 6 -4 8 -3 4 4 -3 5 0 13 6 15 8 3 6 6
-4 6 -10 1 -18 -3 -18 -8z"/>
<path d="M1216 335 c-9 -26 -7 -32 5 -12 6 10 9 21 6 23 -2 3 -7 -2 -11 -11z"/>
<path d="M6829 342 c7 -5 10 -15 7 -21 -4 -6 -2 -11 4 -11 17 0 8 33 -10 37
-12 4 -13 3 -1 -5z"/>
<path d="M6890 339 c0 -5 5 -7 10 -4 6 3 10 8 10 11 0 2 -4 4 -10 4 -5 0 -10
-5 -10 -11z"/>
<path d="M1170 318 c0 -4 4 -8 9 -8 6 0 12 4 15 8 3 5 -1 9 -9 9 -8 0 -15 -4
-15 -9z"/>
<path d="M6855 300 c-3 -5 -1 -10 4 -10 6 0 11 5 11 10 0 6 -2 10 -4 10 -3 0
-8 -4 -11 -10z"/>
<path d="M6883 295 c-3 -9 -3 -18 -1 -21 3 -3 8 4 11 16 6 23 -1 27 -10 5z"/>
<path d="M1155 280 c-4 -11 -11 -17 -17 -14 -7 5 -8 2 -3 -6 6 -10 11 -9 22 5
13 19 17 35 9 35 -3 0 -8 -9 -11 -20z"/>
<path d="M1216 262 c-3 -5 1 -9 9 -9 8 0 12 4 9 9 -3 4 -7 8 -9 8 -2 0 -6 -4
-9 -8z"/>
<path d="M6890 251 c0 -7 -4 -9 -10 -6 -5 3 -10 1 -10 -4 0 -6 4 -11 9 -11 13
0 25 20 17 27 -3 4 -6 1 -6 -6z"/>
<path d="M6895 220 c-3 -5 -1 -10 4 -10 6 0 11 5 11 10 0 6 -2 10 -4 10 -3 0
-8 -4 -11 -10z"/>
<path d="M1094 209 c-11 -18 14 -35 29 -20 10 10 9 11 -5 6 -20 -8 -25 10 -5
18 9 4 9 6 0 6 -6 1 -15 -4 -19 -10z"/>
<path d="M6925 160 c-3 -6 1 -7 9 -4 18 7 21 14 7 14 -6 0 -13 -4 -16 -10z"/>
<path d="M6947 129 c4 -13 8 -18 11 -10 2 7 -1 18 -6 23 -8 8 -9 4 -5 -13z"/>
<path d="M1096 122 c-3 -5 1 -9 9 -9 8 0 12 4 9 9 -3 4 -7 8 -9 8 -2 0 -6 -4
-9 -8z"/>
<path d="M1096 87 c3 -10 9 -15 12 -12 3 3 0 11 -7 18 -10 9 -11 8 -5 -6z"/>
<path d="M6977 63 c-4 -3 -7 -11 -7 -17 0 -6 5 -5 12 2 6 6 9 14 7 17 -3 3 -9
2 -12 -2z"/>
<path d="M1030 31 c0 -7 -5 -9 -12 -5 -7 5 -8 3 -3 -5 5 -9 10 -10 18 -2 6 6
8 14 4 18 -4 3 -7 1 -7 -6z"/>
<path d="M988 3 c7 -3 16 -2 19 1 4 3 -2 6 -13 5 -11 0 -14 -3 -6 -6z"/>
</g>
</svg>
